<svg width="154" height="153" viewBox="0 0 154 153" fill="none" xmlns="http://www.w3.org/2000/svg">
<path opacity="0.2" d="M58.5984 134.437C90.6936 144.494 124.865 126.628 134.922 94.533C144.979 62.4378 127.113 28.2667 95.0178 18.2097C62.9226 8.15277 28.7515 26.0183 18.6946 58.1135C8.63763 90.2088 26.5032 124.38 58.5984 134.437Z" fill="#F89D30"/>
<g clip-path="url(#clip0_128_2827)">
<path d="M109.129 83.9254C104.653 101.881 86.4605 112.797 68.5301 108.32C50.5736 103.845 39.6583 85.653 44.1345 67.7229C48.6104 49.7669 66.7763 38.8517 84.7328 43.3279C102.663 47.7776 113.605 65.9692 109.129 83.9254Z" fill="url(#paint0_linear_128_2827)"/>
<path d="M92.5807 71.6512C93.235 67.202 89.8588 64.7941 85.2002 63.1977L86.7182 57.152L83.0541 56.2359L81.5885 62.1246C80.6201 61.8891 79.6256 61.6535 78.6311 61.4441L80.0967 55.5293L76.4326 54.6133L74.9408 60.6328C74.1295 60.4496 73.3443 60.2664 72.5854 60.0832L72.5854 60.057L67.508 58.8008L66.5396 62.7266C66.5396 62.7266 69.2615 63.3547 69.2092 63.3809C70.701 63.7473 70.9627 64.7418 70.9103 65.527L69.183 72.4102C69.2877 72.4363 69.4186 72.4625 69.5756 72.541C69.4447 72.5148 69.3139 72.4887 69.183 72.4363L66.7752 82.0676C66.592 82.5125 66.1209 83.193 65.1002 82.9313C65.1264 82.9836 62.4307 82.277 62.4307 82.277L60.5986 86.4906L65.3881 87.6945C66.2779 87.9301 67.1416 88.1395 68.0053 88.375L66.4873 94.4731L70.1514 95.3891L71.6693 89.3434C72.6639 89.6051 73.6584 89.8668 74.6006 90.1023L73.1088 96.1219L76.7729 97.0379L78.2908 90.9398C84.5721 92.1176 89.283 91.6465 91.2459 85.9672C92.8424 81.4133 91.1674 78.7699 87.8697 77.0426C90.3037 76.493 92.1096 74.8965 92.5807 71.6512ZM84.1795 83.4285C83.0541 87.9824 75.3596 85.5223 72.8732 84.8941L74.8885 76.807C77.3748 77.4352 85.3834 78.6652 84.1795 83.4285ZM85.3311 71.5727C84.2842 75.734 77.8982 73.6141 75.8307 73.0906L77.6627 65.7625C79.7303 66.2859 86.4041 67.2543 85.3311 71.5727Z" fill="white"/>
</g>
<defs>
<linearGradient id="paint0_linear_128_2827" x1="76.6127" y1="42.3081" x2="76.6127" y2="109.317" gradientUnits="userSpaceOnUse">
<stop stop-color="#F9AA4B"/>
<stop offset="1" stop-color="#F7931A"/>
</linearGradient>
<clipPath id="clip0_128_2827">
<rect width="67" height="67" fill="white" transform="translate(43.1309 42.3242)"/>
</clipPath>
</defs>
</svg>
