<svg width="150" height="151" viewBox="0 0 150 151" fill="none" xmlns="http://www.w3.org/2000/svg">
<path opacity="0.1" d="M92.297 132.511C123.881 122.816 141.626 89.3524 131.93 57.7683C122.235 26.1843 88.772 8.43982 57.188 18.1349C25.6039 27.83 7.85943 61.2934 17.5545 92.8774C27.2496 124.461 60.713 142.206 92.297 132.511Z" fill="#3AB83A"/>
<mask id="mask0_128_2837" style="mask-type:luminance" maskUnits="userSpaceOnUse" x="14" y="15" width="121" height="121">
<path d="M92.297 132.511C123.881 122.816 141.626 89.3524 131.93 57.7683C122.235 26.1843 88.772 8.43982 57.188 18.1349C25.6039 27.83 7.85943 61.2934 17.5545 92.8774C27.2496 124.461 60.713 142.206 92.297 132.511Z" fill="white"/>
</mask>
<g mask="url(#mask0_128_2837)">
<path fill-rule="evenodd" clip-rule="evenodd" d="M60.6351 76.4087L73.0102 61.6135L91.4478 67.0187L67.4853 43.8551L60.6351 76.4087ZM62.1155 79.1304L73.9912 64.7504L91.6735 69.9775L80.0032 84.3058L62.1155 79.1304ZM62.3884 82.1205C68.9063 84.013 75.7112 85.9994 80.9683 87.5389L93.1819 72.6681C90.7562 84.5571 88.7334 94.4556 86.4578 105.422C84.8479 103.864 83.2046 102.275 81.5482 100.672L81.5375 100.662C74.9262 94.2666 68.1082 87.6712 62.3884 82.1205Z" fill="#3AB83A"/>
<path fill-rule="evenodd" clip-rule="evenodd" d="M67.4893 43.8535L73.0045 61.6149L91.4475 67.0183L67.4893 43.8535ZM73.9835 64.7521L91.7628 69.9495L79.9943 84.308L73.9835 64.7521ZM80.9635 87.5398L93.1826 72.6673C91.5512 84.3125 86.4529 105.423 86.4529 105.423L80.9635 87.5398Z" fill="#0B8311"/>
</g>
</svg>
