<svg width="691" height="276" viewBox="0 0 691 276" fill="none" xmlns="http://www.w3.org/2000/svg">
<rect x="1.72522" y="1.72522" width="687.824" height="272.685" rx="2.9009" fill="#2A2836" stroke="white" stroke-width="1.45045"/>
<path d="M0.725586 88.4775H55.6603V188.559H0.725586" stroke="white" stroke-width="1.45045"/>
<path d="M0.725586 56.5674H111.631V219.743H0.725586" stroke="white" stroke-width="1.45045"/>
<path d="M111.631 110.234C118.53 113.022 124.265 117.025 128.265 121.846C132.266 126.667 134.393 132.137 134.434 137.711C134.475 143.286 132.429 148.771 128.5 153.621C124.57 158.47 118.894 162.514 112.037 165.351" stroke="white" stroke-width="1.45045"/>
<path d="M690 88.4775H635.065V188.559H690" stroke="white" stroke-width="1.45045"/>
<path d="M690 56.5674L579.094 56.5674V219.743H690" stroke="white" stroke-width="1.45045"/>
<path d="M579.094 110.234C572.195 113.022 566.46 117.025 562.46 121.846C558.459 126.667 556.332 132.137 556.291 137.711C556.25 143.286 558.296 148.771 562.226 153.621C566.155 158.47 571.831 162.514 578.688 165.351" stroke="white" stroke-width="1.45045"/>
<g clip-path="url(#clip0_820_4842)">
<path opacity="0.1" d="M350.226 0V274.135" stroke="white" stroke-width="1.45045"/>
<circle opacity="0.1" cx="349.863" cy="136.705" r="42.4257" stroke="white" stroke-width="1.45045"/>
</g>
<path d="M200.354 186.388C199.596 186.388 198.922 186.22 198.332 185.884C197.746 185.548 197.289 185.077 196.961 184.472C196.633 183.866 196.469 183.173 196.469 182.392C196.469 181.606 196.631 180.913 196.955 180.312C197.279 179.706 197.736 179.235 198.326 178.899C198.92 178.563 199.596 178.396 200.354 178.396C200.955 178.396 201.51 178.499 202.018 178.706C202.525 178.913 202.949 179.21 203.289 179.597C203.629 179.979 203.855 180.427 203.969 180.938H202.814C202.67 180.474 202.371 180.095 201.918 179.802C201.469 179.509 200.939 179.362 200.33 179.362C199.787 179.362 199.305 179.489 198.883 179.743C198.465 179.997 198.139 180.353 197.904 180.81C197.674 181.263 197.559 181.794 197.559 182.403C197.559 183.013 197.674 183.546 197.904 184.003C198.139 184.456 198.465 184.806 198.883 185.052C199.305 185.294 199.787 185.415 200.33 185.415C200.932 185.415 201.457 185.272 201.906 184.987C202.359 184.702 202.662 184.319 202.814 183.839H203.969C203.863 184.343 203.643 184.788 203.307 185.175C202.971 185.558 202.547 185.856 202.035 186.071C201.523 186.282 200.963 186.388 200.354 186.388ZM209.588 182.392C209.994 182.544 210.312 182.78 210.543 183.101C210.777 183.417 210.895 183.796 210.895 184.237C210.895 184.862 210.666 185.353 210.209 185.708C209.752 186.063 209.148 186.241 208.398 186.241H205.352V178.548H208.34C209.109 178.548 209.715 178.737 210.156 179.116C210.602 179.491 210.824 179.985 210.824 180.599C210.824 181.04 210.715 181.411 210.496 181.712C210.281 182.013 209.979 182.239 209.588 182.392ZM206.348 179.45V181.993H208.34C208.805 181.993 209.164 181.876 209.418 181.642C209.672 181.403 209.799 181.101 209.799 180.733C209.799 180.374 209.666 180.071 209.4 179.825C209.139 179.575 208.781 179.45 208.328 179.45H206.348ZM208.422 185.327C208.871 185.327 209.229 185.216 209.494 184.993C209.764 184.771 209.898 184.466 209.898 184.079C209.898 183.681 209.76 183.37 209.482 183.147C209.209 182.921 208.855 182.808 208.422 182.808H206.348V185.327H208.422Z" fill="#039CEC"/>
<g filter="url(#filter0_d_820_4842)">
<rect x="219" y="170" width="22.482" height="22.482" rx="2" fill="#D7D8FF" fill-opacity="0.26" shape-rendering="crispEdges"/>
<path d="M234.741 181.804H225.741C225.434 181.804 225.179 181.549 225.179 181.241C225.179 180.934 225.434 180.679 225.741 180.679H234.741C235.049 180.679 235.304 180.934 235.304 181.241C235.304 181.549 235.049 181.804 234.741 181.804Z" fill="#FEFEFE" fill-opacity="0.996078"/>
<path d="M230.241 186.304C229.934 186.304 229.679 186.049 229.679 185.741V176.741C229.679 176.434 229.934 176.179 230.241 176.179C230.549 176.179 230.804 176.434 230.804 176.741V185.741C230.804 186.049 230.549 186.304 230.241 186.304Z" fill="#FEFEFE" fill-opacity="0.996078"/>
</g>
<path d="M218.914 235.548H221.902C222.758 235.548 223.416 235.751 223.877 236.157C224.342 236.56 224.574 237.124 224.574 237.851C224.574 238.394 224.439 238.854 224.17 239.233C223.904 239.608 223.531 239.868 223.051 240.013L224.586 243.241H223.426L222.008 240.194H219.957V243.241H218.914V235.548ZM221.914 239.257C222.418 239.257 222.805 239.132 223.074 238.882C223.348 238.628 223.484 238.288 223.484 237.862C223.484 237.437 223.346 237.101 223.068 236.854C222.795 236.608 222.406 236.485 221.902 236.485H219.957V239.257H221.914ZM230.229 239.392C230.635 239.544 230.953 239.78 231.184 240.101C231.418 240.417 231.535 240.796 231.535 241.237C231.535 241.862 231.307 242.353 230.85 242.708C230.393 243.063 229.789 243.241 229.039 243.241H225.992V235.548H228.98C229.75 235.548 230.355 235.737 230.797 236.116C231.242 236.491 231.465 236.985 231.465 237.599C231.465 238.04 231.355 238.411 231.137 238.712C230.922 239.013 230.619 239.239 230.229 239.392ZM226.988 236.45V238.993H228.98C229.445 238.993 229.805 238.876 230.059 238.642C230.312 238.403 230.439 238.101 230.439 237.733C230.439 237.374 230.307 237.071 230.041 236.825C229.779 236.575 229.422 236.45 228.969 236.45H226.988ZM229.062 242.327C229.512 242.327 229.869 242.216 230.135 241.993C230.404 241.771 230.539 241.466 230.539 241.079C230.539 240.681 230.4 240.37 230.123 240.147C229.85 239.921 229.496 239.808 229.062 239.808H226.988V242.327H229.062Z" fill="#039CEC"/>
<g filter="url(#filter1_d_820_4842)">
<rect x="240" y="227" width="22.482" height="22.482" rx="2" fill="#D7D8FF" fill-opacity="0.26" shape-rendering="crispEdges"/>
<path d="M255.741 238.804H246.741C246.434 238.804 246.179 238.549 246.179 238.241C246.179 237.934 246.434 237.679 246.741 237.679H255.741C256.049 237.679 256.304 237.934 256.304 238.241C256.304 238.549 256.049 238.804 255.741 238.804Z" fill="#FEFEFE" fill-opacity="0.996078"/>
<path d="M251.241 243.304C250.934 243.304 250.679 243.049 250.679 242.741V233.741C250.679 233.434 250.934 233.179 251.241 233.179C251.549 233.179 251.804 233.434 251.804 233.741V242.741C251.804 243.049 251.549 243.304 251.241 243.304Z" fill="#FEFEFE" fill-opacity="0.996078"/>
</g>
<path d="M200.354 113.388C199.596 113.388 198.922 113.22 198.332 112.884C197.746 112.548 197.289 112.077 196.961 111.472C196.633 110.866 196.469 110.173 196.469 109.392C196.469 108.606 196.631 107.913 196.955 107.312C197.279 106.706 197.736 106.235 198.326 105.899C198.92 105.563 199.596 105.396 200.354 105.396C200.955 105.396 201.51 105.499 202.018 105.706C202.525 105.913 202.949 106.21 203.289 106.597C203.629 106.979 203.855 107.427 203.969 107.938H202.814C202.67 107.474 202.371 107.095 201.918 106.802C201.469 106.509 200.939 106.362 200.33 106.362C199.787 106.362 199.305 106.489 198.883 106.743C198.465 106.997 198.139 107.353 197.904 107.81C197.674 108.263 197.559 108.794 197.559 109.403C197.559 110.013 197.674 110.546 197.904 111.003C198.139 111.456 198.465 111.806 198.883 112.052C199.305 112.294 199.787 112.415 200.33 112.415C200.932 112.415 201.457 112.272 201.906 111.987C202.359 111.702 202.662 111.319 202.814 110.839H203.969C203.863 111.343 203.643 111.788 203.307 112.175C202.971 112.558 202.547 112.856 202.035 113.071C201.523 113.282 200.963 113.388 200.354 113.388ZM209.588 109.392C209.994 109.544 210.312 109.78 210.543 110.101C210.777 110.417 210.895 110.796 210.895 111.237C210.895 111.862 210.666 112.353 210.209 112.708C209.752 113.063 209.148 113.241 208.398 113.241H205.352V105.548H208.34C209.109 105.548 209.715 105.737 210.156 106.116C210.602 106.491 210.824 106.985 210.824 107.599C210.824 108.04 210.715 108.411 210.496 108.712C210.281 109.013 209.979 109.239 209.588 109.392ZM206.348 106.45V108.993H208.34C208.805 108.993 209.164 108.876 209.418 108.642C209.672 108.403 209.799 108.101 209.799 107.733C209.799 107.374 209.666 107.071 209.4 106.825C209.139 106.575 208.781 106.45 208.328 106.45H206.348ZM208.422 112.327C208.871 112.327 209.229 112.216 209.494 111.993C209.764 111.771 209.898 111.466 209.898 111.079C209.898 110.681 209.76 110.37 209.482 110.147C209.209 109.921 208.855 109.808 208.422 109.808H206.348V112.327H208.422Z" fill="#039CEC"/>
<g filter="url(#filter2_d_820_4842)">
<rect x="219" y="97" width="22.482" height="22.482" rx="2" fill="#D7D8FF" fill-opacity="0.26" shape-rendering="crispEdges"/>
<path d="M234.741 108.804H225.741C225.434 108.804 225.179 108.549 225.179 108.241C225.179 107.934 225.434 107.679 225.741 107.679H234.741C235.049 107.679 235.304 107.934 235.304 108.241C235.304 108.549 235.049 108.804 234.741 108.804Z" fill="#FEFEFE" fill-opacity="0.996078"/>
<path d="M230.241 113.304C229.934 113.304 229.679 113.049 229.679 112.741V103.741C229.679 103.434 229.934 103.179 230.241 103.179C230.549 103.179 230.804 103.434 230.804 103.741V112.741C230.804 113.049 230.549 113.304 230.241 113.304Z" fill="#FEFEFE" fill-opacity="0.996078"/>
</g>
<path d="M448.914 181.548H451.902C452.758 181.548 453.416 181.751 453.877 182.157C454.342 182.56 454.574 183.124 454.574 183.851C454.574 184.394 454.439 184.854 454.17 185.233C453.904 185.608 453.531 185.868 453.051 186.013L454.586 189.241H453.426L452.008 186.194H449.957V189.241H448.914V181.548ZM451.914 185.257C452.418 185.257 452.805 185.132 453.074 184.882C453.348 184.628 453.484 184.288 453.484 183.862C453.484 183.437 453.346 183.101 453.068 182.854C452.795 182.608 452.406 182.485 451.902 182.485H449.957V185.257H451.914ZM457.035 182.509V185.04H460.105V185.954H457.035V189.241H455.992V181.548H460.691V182.509H457.035Z" fill="#E726F7"/>
<g filter="url(#filter3_d_820_4842)">
<rect x="466" y="173" width="22.482" height="22.482" rx="2" fill="#D7D8FF" fill-opacity="0.26" shape-rendering="crispEdges"/>
<path d="M481.741 184.804H472.741C472.434 184.804 472.179 184.549 472.179 184.241C472.179 183.934 472.434 183.679 472.741 183.679H481.741C482.049 183.679 482.304 183.934 482.304 184.241C482.304 184.549 482.049 184.804 481.741 184.804Z" fill="#FEFEFE" fill-opacity="0.996078"/>
<path d="M477.241 189.304C476.934 189.304 476.679 189.049 476.679 188.741V179.741C476.679 179.434 476.934 179.179 477.241 179.179C477.549 179.179 477.804 179.434 477.804 179.741V188.741C477.804 189.049 477.549 189.304 477.241 189.304Z" fill="#FEFEFE" fill-opacity="0.996078"/>
</g>
<path d="M351.914 230.548H354.902C355.758 230.548 356.416 230.751 356.877 231.157C357.342 231.56 357.574 232.124 357.574 232.851C357.574 233.394 357.439 233.854 357.17 234.233C356.904 234.608 356.531 234.868 356.051 235.013L357.586 238.241H356.426L355.008 235.194H352.957V238.241H351.914V230.548ZM354.914 234.257C355.418 234.257 355.805 234.132 356.074 233.882C356.348 233.628 356.484 233.288 356.484 232.862C356.484 232.437 356.346 232.101 356.068 231.854C355.795 231.608 355.406 231.485 354.902 231.485H352.957V234.257H354.914ZM366.287 230.56V238.241H365.268V235.757C365.268 234.78 365.295 233.788 365.35 232.78L363.094 238.024H362.121L359.9 232.827C359.971 233.714 360.008 234.69 360.012 235.757V238.241H358.992V230.548H359.977L362.625 236.847L365.303 230.548L366.287 230.56Z" fill="#9FFBA3"/>
<g filter="url(#filter4_d_820_4842)">
<rect x="374" y="222" width="22.482" height="22.482" rx="2" fill="#D7D8FF" fill-opacity="0.26" shape-rendering="crispEdges"/>
<path d="M389.741 233.804H380.741C380.434 233.804 380.179 233.549 380.179 233.241C380.179 232.934 380.434 232.679 380.741 232.679H389.741C390.049 232.679 390.304 232.934 390.304 233.241C390.304 233.549 390.049 233.804 389.741 233.804Z" fill="#FEFEFE" fill-opacity="0.996078"/>
<path d="M385.241 238.304C384.934 238.304 384.679 238.049 384.679 237.741V228.741C384.679 228.434 384.934 228.179 385.241 228.179C385.549 228.179 385.804 228.434 385.804 228.741V237.741C385.804 238.049 385.549 238.304 385.241 238.304Z" fill="#FEFEFE" fill-opacity="0.996078"/>
</g>
<path d="M334.354 184.388C333.596 184.388 332.922 184.22 332.332 183.884C331.746 183.548 331.289 183.077 330.961 182.472C330.633 181.866 330.469 181.173 330.469 180.392C330.469 179.606 330.631 178.913 330.955 178.312C331.279 177.706 331.736 177.235 332.326 176.899C332.92 176.563 333.596 176.396 334.354 176.396C334.955 176.396 335.51 176.499 336.018 176.706C336.525 176.913 336.949 177.21 337.289 177.597C337.629 177.979 337.855 178.427 337.969 178.938H336.814C336.67 178.474 336.371 178.095 335.918 177.802C335.469 177.509 334.939 177.362 334.33 177.362C333.787 177.362 333.305 177.489 332.883 177.743C332.465 177.997 332.139 178.353 331.904 178.81C331.674 179.263 331.559 179.794 331.559 180.403C331.559 181.013 331.674 181.546 331.904 182.003C332.139 182.456 332.465 182.806 332.883 183.052C333.305 183.294 333.787 183.415 334.33 183.415C334.932 183.415 335.457 183.272 335.906 182.987C336.359 182.702 336.662 182.319 336.814 181.839H337.969C337.863 182.343 337.643 182.788 337.307 183.175C336.971 183.558 336.547 183.856 336.035 184.071C335.523 184.282 334.963 184.388 334.354 184.388ZM346.646 176.56V184.241H345.627V181.757C345.627 180.78 345.654 179.788 345.709 178.78L343.453 184.024H342.48L340.26 178.827C340.33 179.714 340.367 180.69 340.371 181.757V184.241H339.352V176.548H340.336L342.984 182.847L345.662 176.548L346.646 176.56Z" fill="#9FFBA3"/>
<g filter="url(#filter5_d_820_4842)">
<rect x="354" y="168" width="22.482" height="22.482" rx="2" fill="#D7D8FF" fill-opacity="0.26" shape-rendering="crispEdges"/>
<path d="M369.741 179.804H360.741C360.434 179.804 360.179 179.549 360.179 179.241C360.179 178.934 360.434 178.679 360.741 178.679H369.741C370.049 178.679 370.304 178.934 370.304 179.241C370.304 179.549 370.049 179.804 369.741 179.804Z" fill="#FEFEFE" fill-opacity="0.996078"/>
<path d="M365.241 184.304C364.934 184.304 364.679 184.049 364.679 183.741V174.741C364.679 174.434 364.934 174.179 365.241 174.179C365.549 174.179 365.804 174.434 365.804 174.741V183.741C365.804 184.049 365.549 184.304 365.241 184.304Z" fill="#FEFEFE" fill-opacity="0.996078"/>
</g>
<path d="M126.086 135.151V135.772C126.086 136.483 125.926 137.114 125.605 137.665C125.289 138.212 124.844 138.636 124.27 138.937C123.699 139.237 123.045 139.388 122.307 139.388C121.545 139.388 120.875 139.226 120.297 138.901C119.719 138.577 119.27 138.114 118.949 137.513C118.629 136.911 118.469 136.22 118.469 135.438C118.469 134.638 118.633 133.933 118.961 133.323C119.289 132.71 119.746 132.235 120.332 131.899C120.922 131.563 121.596 131.396 122.354 131.396C122.947 131.396 123.492 131.499 123.988 131.706C124.484 131.913 124.9 132.206 125.236 132.585C125.572 132.96 125.797 133.392 125.91 133.88H124.791C124.623 133.407 124.314 133.036 123.865 132.767C123.42 132.497 122.904 132.362 122.318 132.362C121.76 132.362 121.271 132.491 120.854 132.749C120.439 133.007 120.117 133.366 119.887 133.827C119.66 134.284 119.547 134.817 119.547 135.427C119.547 136.349 119.799 137.077 120.303 137.612C120.807 138.147 121.49 138.415 122.354 138.415C123.107 138.415 123.725 138.208 124.205 137.794C124.686 137.376 124.953 136.794 125.008 136.048H122.154V135.151H126.086ZM130.633 134.858L133.311 139.241H132.039L129.924 135.714L128.512 137.454V139.253H127.469V131.548H128.512V135.854L132.051 131.548H133.346L130.633 134.858Z" fill="#E1AC08"/>
<g filter="url(#filter6_d_820_4842)">
<rect x="140" y="123" width="22.482" height="22.482" rx="2" fill="#D7D8FF" fill-opacity="0.26" shape-rendering="crispEdges"/>
<path d="M155.741 134.804H146.741C146.434 134.804 146.179 134.549 146.179 134.241C146.179 133.934 146.434 133.679 146.741 133.679H155.741C156.049 133.679 156.304 133.934 156.304 134.241C156.304 134.549 156.049 134.804 155.741 134.804Z" fill="#FEFEFE" fill-opacity="0.996078"/>
<path d="M151.241 139.304C150.934 139.304 150.679 139.049 150.679 138.741V129.741C150.679 129.434 150.934 129.179 151.241 129.179C151.549 129.179 151.804 129.434 151.804 129.741V138.741C151.804 139.049 151.549 139.304 151.241 139.304Z" fill="#FEFEFE" fill-opacity="0.996078"/>
</g>
<path d="M339.354 115.388C338.596 115.388 337.922 115.22 337.332 114.884C336.746 114.548 336.289 114.077 335.961 113.472C335.633 112.866 335.469 112.173 335.469 111.392C335.469 110.606 335.631 109.913 335.955 109.312C336.279 108.706 336.736 108.235 337.326 107.899C337.92 107.563 338.596 107.396 339.354 107.396C339.955 107.396 340.51 107.499 341.018 107.706C341.525 107.913 341.949 108.21 342.289 108.597C342.629 108.979 342.855 109.427 342.969 109.938H341.814C341.67 109.474 341.371 109.095 340.918 108.802C340.469 108.509 339.939 108.362 339.33 108.362C338.787 108.362 338.305 108.489 337.883 108.743C337.465 108.997 337.139 109.353 336.904 109.81C336.674 110.263 336.559 110.794 336.559 111.403C336.559 112.013 336.674 112.546 336.904 113.003C337.139 113.456 337.465 113.806 337.883 114.052C338.305 114.294 338.787 114.415 339.33 114.415C339.932 114.415 340.457 114.272 340.906 113.987C341.359 113.702 341.662 113.319 341.814 112.839H342.969C342.863 113.343 342.643 113.788 342.307 114.175C341.971 114.558 341.547 114.856 341.035 115.071C340.523 115.282 339.963 115.388 339.354 115.388ZM351.646 107.56V115.241H350.627V112.757C350.627 111.78 350.654 110.788 350.709 109.78L348.453 115.024H347.48L345.26 109.827C345.33 110.714 345.367 111.69 345.371 112.757V115.241H344.352V107.548H345.336L347.984 113.847L350.662 107.548L351.646 107.56Z" fill="#9FFBA3"/>
<g filter="url(#filter7_d_820_4842)">
<rect x="359" y="99" width="22.482" height="22.482" rx="2" fill="#D7D8FF" fill-opacity="0.26" shape-rendering="crispEdges"/>
<path d="M374.741 110.804H365.741C365.434 110.804 365.179 110.549 365.179 110.241C365.179 109.934 365.434 109.679 365.741 109.679H374.741C375.049 109.679 375.304 109.934 375.304 110.241C375.304 110.549 375.049 110.804 374.741 110.804Z" fill="#FEFEFE" fill-opacity="0.996078"/>
<path d="M370.241 115.304C369.934 115.304 369.679 115.049 369.679 114.741V105.741C369.679 105.434 369.934 105.179 370.241 105.179C370.549 105.179 370.804 105.434 370.804 105.741V114.741C370.804 115.049 370.549 115.304 370.241 115.304Z" fill="#FEFEFE" fill-opacity="0.996078"/>
</g>
<path d="M223.162 52.292V53.2412H218.914V45.5479H219.957V52.292H223.162ZM228.588 49.3916C228.994 49.5439 229.312 49.7803 229.543 50.1006C229.777 50.417 229.895 50.7959 229.895 51.2373C229.895 51.8623 229.666 52.3525 229.209 52.708C228.752 53.0635 228.148 53.2412 227.398 53.2412H224.352V45.5479H227.34C228.109 45.5479 228.715 45.7373 229.156 46.1162C229.602 46.4912 229.824 46.9854 229.824 47.5986C229.824 48.04 229.715 48.4111 229.496 48.7119C229.281 49.0127 228.979 49.2393 228.588 49.3916ZM225.348 46.4502V48.9932H227.34C227.805 48.9932 228.164 48.876 228.418 48.6416C228.672 48.4033 228.799 48.1006 228.799 47.7334C228.799 47.374 228.666 47.0713 228.4 46.8252C228.139 46.5752 227.781 46.4502 227.328 46.4502H225.348ZM227.422 52.3271C227.871 52.3271 228.229 52.2158 228.494 51.9932C228.764 51.7705 228.898 51.4658 228.898 51.0791C228.898 50.6807 228.76 50.3701 228.482 50.1475C228.209 49.9209 227.855 49.8076 227.422 49.8076H225.348V52.3271H227.422Z" fill="#039CEC"/>
<g filter="url(#filter8_d_820_4842)">
<rect x="238" y="37" width="22.482" height="22.482" rx="2" fill="#D7D8FF" fill-opacity="0.26" shape-rendering="crispEdges"/>
<path d="M253.741 48.8037H244.741C244.434 48.8037 244.179 48.5487 244.179 48.2412C244.179 47.9337 244.434 47.6787 244.741 47.6787H253.741C254.049 47.6787 254.304 47.9337 254.304 48.2412C254.304 48.5487 254.049 48.8037 253.741 48.8037Z" fill="#FEFEFE" fill-opacity="0.996078"/>
<path d="M249.241 53.3037C248.934 53.3037 248.679 53.0487 248.679 52.7412V43.7412C248.679 43.4337 248.934 43.1787 249.241 43.1787C249.549 43.1787 249.804 43.4337 249.804 43.7412V52.7412C249.804 53.0487 249.549 53.3037 249.241 53.3037Z" fill="#FEFEFE" fill-opacity="0.996078"/>
</g>
<path d="M356.162 54.292V55.2412H351.914V47.5479H352.957V54.292H356.162ZM364.646 47.5596V55.2412H363.627V52.7568C363.627 51.7803 363.654 50.7881 363.709 49.7803L361.453 55.0244H360.48L358.26 49.8271C358.33 50.7139 358.367 51.6904 358.371 52.7568V55.2412H357.352V47.5479H358.336L360.984 53.8467L363.662 47.5479L364.646 47.5596Z" fill="#9FFBA3"/>
<g filter="url(#filter9_d_820_4842)">
<rect x="372" y="39" width="22.482" height="22.482" rx="2" fill="#D7D8FF" fill-opacity="0.26" shape-rendering="crispEdges"/>
<path d="M387.741 50.8037H378.741C378.434 50.8037 378.179 50.5487 378.179 50.2412C378.179 49.9337 378.434 49.6787 378.741 49.6787H387.741C388.049 49.6787 388.304 49.9337 388.304 50.2412C388.304 50.5487 388.049 50.8037 387.741 50.8037Z" fill="#FEFEFE" fill-opacity="0.996078"/>
<path d="M383.241 55.3037C382.934 55.3037 382.679 55.0487 382.679 54.7412V45.7412C382.679 45.4337 382.934 45.1787 383.241 45.1787C383.549 45.1787 383.804 45.4337 383.804 45.7412V54.7412C383.804 55.0487 383.549 55.3037 383.241 55.3037Z" fill="#FEFEFE" fill-opacity="0.996078"/>
</g>
<path d="M453.162 81.292V82.2412H448.914V74.5479H449.957V81.292H453.162ZM455.395 75.5088V78.04H458.465V78.9541H455.395V82.2412H454.352V74.5479H459.051V75.5088H455.395Z" fill="#E726F7"/>
<g filter="url(#filter10_d_820_4842)">
<rect x="464" y="66" width="22.482" height="22.482" rx="2" fill="#D7D8FF" fill-opacity="0.26" shape-rendering="crispEdges"/>
<path d="M479.741 77.8037H470.741C470.434 77.8037 470.179 77.5487 470.179 77.2412C470.179 76.9337 470.434 76.6787 470.741 76.6787H479.741C480.049 76.6787 480.304 76.9337 480.304 77.2412C480.304 77.5487 480.049 77.8037 479.741 77.8037Z" fill="#FEFEFE" fill-opacity="0.996078"/>
<path d="M475.241 82.3037C474.934 82.3037 474.679 82.0487 474.679 81.7412V72.7412C474.679 72.4337 474.934 72.1787 475.241 72.1787C475.549 72.1787 475.804 72.4337 475.804 72.7412V81.7412C475.804 82.0487 475.549 82.3037 475.241 82.3037Z" fill="#FEFEFE" fill-opacity="0.996078"/>
</g>
<defs>
<filter id="filter0_d_820_4842" x="208.122" y="159.122" width="44.2387" height="44.2392" filterUnits="userSpaceOnUse" color-interpolation-filters="sRGB">
<feFlood flood-opacity="0" result="BackgroundImageFix"/>
<feColorMatrix in="SourceAlpha" type="matrix" values="0 0 0 0 0 0 0 0 0 0 0 0 0 0 0 0 0 0 127 0" result="hardAlpha"/>
<feOffset/>
<feGaussianBlur stdDeviation="5.43919"/>
<feComposite in2="hardAlpha" operator="out"/>
<feColorMatrix type="matrix" values="0 0 0 0 0 0 0 0 0 0 0 0 0 0 0 0 0 0 0.1 0"/>
<feBlend mode="normal" in2="BackgroundImageFix" result="effect1_dropShadow_820_4842"/>
<feBlend mode="normal" in="SourceGraphic" in2="effect1_dropShadow_820_4842" result="shape"/>
</filter>
<filter id="filter1_d_820_4842" x="229.122" y="216.122" width="44.2387" height="44.2392" filterUnits="userSpaceOnUse" color-interpolation-filters="sRGB">
<feFlood flood-opacity="0" result="BackgroundImageFix"/>
<feColorMatrix in="SourceAlpha" type="matrix" values="0 0 0 0 0 0 0 0 0 0 0 0 0 0 0 0 0 0 127 0" result="hardAlpha"/>
<feOffset/>
<feGaussianBlur stdDeviation="5.43919"/>
<feComposite in2="hardAlpha" operator="out"/>
<feColorMatrix type="matrix" values="0 0 0 0 0 0 0 0 0 0 0 0 0 0 0 0 0 0 0.1 0"/>
<feBlend mode="normal" in2="BackgroundImageFix" result="effect1_dropShadow_820_4842"/>
<feBlend mode="normal" in="SourceGraphic" in2="effect1_dropShadow_820_4842" result="shape"/>
</filter>
<filter id="filter2_d_820_4842" x="208.122" y="86.1216" width="44.2387" height="44.2392" filterUnits="userSpaceOnUse" color-interpolation-filters="sRGB">
<feFlood flood-opacity="0" result="BackgroundImageFix"/>
<feColorMatrix in="SourceAlpha" type="matrix" values="0 0 0 0 0 0 0 0 0 0 0 0 0 0 0 0 0 0 127 0" result="hardAlpha"/>
<feOffset/>
<feGaussianBlur stdDeviation="5.43919"/>
<feComposite in2="hardAlpha" operator="out"/>
<feColorMatrix type="matrix" values="0 0 0 0 0 0 0 0 0 0 0 0 0 0 0 0 0 0 0.1 0"/>
<feBlend mode="normal" in2="BackgroundImageFix" result="effect1_dropShadow_820_4842"/>
<feBlend mode="normal" in="SourceGraphic" in2="effect1_dropShadow_820_4842" result="shape"/>
</filter>
<filter id="filter3_d_820_4842" x="455.122" y="162.122" width="44.2387" height="44.2392" filterUnits="userSpaceOnUse" color-interpolation-filters="sRGB">
<feFlood flood-opacity="0" result="BackgroundImageFix"/>
<feColorMatrix in="SourceAlpha" type="matrix" values="0 0 0 0 0 0 0 0 0 0 0 0 0 0 0 0 0 0 127 0" result="hardAlpha"/>
<feOffset/>
<feGaussianBlur stdDeviation="5.43919"/>
<feComposite in2="hardAlpha" operator="out"/>
<feColorMatrix type="matrix" values="0 0 0 0 0 0 0 0 0 0 0 0 0 0 0 0 0 0 0.1 0"/>
<feBlend mode="normal" in2="BackgroundImageFix" result="effect1_dropShadow_820_4842"/>
<feBlend mode="normal" in="SourceGraphic" in2="effect1_dropShadow_820_4842" result="shape"/>
</filter>
<filter id="filter4_d_820_4842" x="363.122" y="211.122" width="44.2387" height="44.2392" filterUnits="userSpaceOnUse" color-interpolation-filters="sRGB">
<feFlood flood-opacity="0" result="BackgroundImageFix"/>
<feColorMatrix in="SourceAlpha" type="matrix" values="0 0 0 0 0 0 0 0 0 0 0 0 0 0 0 0 0 0 127 0" result="hardAlpha"/>
<feOffset/>
<feGaussianBlur stdDeviation="5.43919"/>
<feComposite in2="hardAlpha" operator="out"/>
<feColorMatrix type="matrix" values="0 0 0 0 0 0 0 0 0 0 0 0 0 0 0 0 0 0 0.1 0"/>
<feBlend mode="normal" in2="BackgroundImageFix" result="effect1_dropShadow_820_4842"/>
<feBlend mode="normal" in="SourceGraphic" in2="effect1_dropShadow_820_4842" result="shape"/>
</filter>
<filter id="filter5_d_820_4842" x="343.122" y="157.122" width="44.2387" height="44.2392" filterUnits="userSpaceOnUse" color-interpolation-filters="sRGB">
<feFlood flood-opacity="0" result="BackgroundImageFix"/>
<feColorMatrix in="SourceAlpha" type="matrix" values="0 0 0 0 0 0 0 0 0 0 0 0 0 0 0 0 0 0 127 0" result="hardAlpha"/>
<feOffset/>
<feGaussianBlur stdDeviation="5.43919"/>
<feComposite in2="hardAlpha" operator="out"/>
<feColorMatrix type="matrix" values="0 0 0 0 0 0 0 0 0 0 0 0 0 0 0 0 0 0 0.1 0"/>
<feBlend mode="normal" in2="BackgroundImageFix" result="effect1_dropShadow_820_4842"/>
<feBlend mode="normal" in="SourceGraphic" in2="effect1_dropShadow_820_4842" result="shape"/>
</filter>
<filter id="filter6_d_820_4842" x="129.122" y="112.122" width="44.2387" height="44.2392" filterUnits="userSpaceOnUse" color-interpolation-filters="sRGB">
<feFlood flood-opacity="0" result="BackgroundImageFix"/>
<feColorMatrix in="SourceAlpha" type="matrix" values="0 0 0 0 0 0 0 0 0 0 0 0 0 0 0 0 0 0 127 0" result="hardAlpha"/>
<feOffset/>
<feGaussianBlur stdDeviation="5.43919"/>
<feComposite in2="hardAlpha" operator="out"/>
<feColorMatrix type="matrix" values="0 0 0 0 0 0 0 0 0 0 0 0 0 0 0 0 0 0 0.1 0"/>
<feBlend mode="normal" in2="BackgroundImageFix" result="effect1_dropShadow_820_4842"/>
<feBlend mode="normal" in="SourceGraphic" in2="effect1_dropShadow_820_4842" result="shape"/>
</filter>
<filter id="filter7_d_820_4842" x="348.122" y="88.1216" width="44.2387" height="44.2392" filterUnits="userSpaceOnUse" color-interpolation-filters="sRGB">
<feFlood flood-opacity="0" result="BackgroundImageFix"/>
<feColorMatrix in="SourceAlpha" type="matrix" values="0 0 0 0 0 0 0 0 0 0 0 0 0 0 0 0 0 0 127 0" result="hardAlpha"/>
<feOffset/>
<feGaussianBlur stdDeviation="5.43919"/>
<feComposite in2="hardAlpha" operator="out"/>
<feColorMatrix type="matrix" values="0 0 0 0 0 0 0 0 0 0 0 0 0 0 0 0 0 0 0.1 0"/>
<feBlend mode="normal" in2="BackgroundImageFix" result="effect1_dropShadow_820_4842"/>
<feBlend mode="normal" in="SourceGraphic" in2="effect1_dropShadow_820_4842" result="shape"/>
</filter>
<filter id="filter8_d_820_4842" x="227.122" y="26.1216" width="44.2387" height="44.2392" filterUnits="userSpaceOnUse" color-interpolation-filters="sRGB">
<feFlood flood-opacity="0" result="BackgroundImageFix"/>
<feColorMatrix in="SourceAlpha" type="matrix" values="0 0 0 0 0 0 0 0 0 0 0 0 0 0 0 0 0 0 127 0" result="hardAlpha"/>
<feOffset/>
<feGaussianBlur stdDeviation="5.43919"/>
<feComposite in2="hardAlpha" operator="out"/>
<feColorMatrix type="matrix" values="0 0 0 0 0 0 0 0 0 0 0 0 0 0 0 0 0 0 0.1 0"/>
<feBlend mode="normal" in2="BackgroundImageFix" result="effect1_dropShadow_820_4842"/>
<feBlend mode="normal" in="SourceGraphic" in2="effect1_dropShadow_820_4842" result="shape"/>
</filter>
<filter id="filter9_d_820_4842" x="361.122" y="28.1216" width="44.2387" height="44.2392" filterUnits="userSpaceOnUse" color-interpolation-filters="sRGB">
<feFlood flood-opacity="0" result="BackgroundImageFix"/>
<feColorMatrix in="SourceAlpha" type="matrix" values="0 0 0 0 0 0 0 0 0 0 0 0 0 0 0 0 0 0 127 0" result="hardAlpha"/>
<feOffset/>
<feGaussianBlur stdDeviation="5.43919"/>
<feComposite in2="hardAlpha" operator="out"/>
<feColorMatrix type="matrix" values="0 0 0 0 0 0 0 0 0 0 0 0 0 0 0 0 0 0 0.1 0"/>
<feBlend mode="normal" in2="BackgroundImageFix" result="effect1_dropShadow_820_4842"/>
<feBlend mode="normal" in="SourceGraphic" in2="effect1_dropShadow_820_4842" result="shape"/>
</filter>
<filter id="filter10_d_820_4842" x="453.122" y="55.1216" width="44.2387" height="44.2392" filterUnits="userSpaceOnUse" color-interpolation-filters="sRGB">
<feFlood flood-opacity="0" result="BackgroundImageFix"/>
<feColorMatrix in="SourceAlpha" type="matrix" values="0 0 0 0 0 0 0 0 0 0 0 0 0 0 0 0 0 0 127 0" result="hardAlpha"/>
<feOffset/>
<feGaussianBlur stdDeviation="5.43919"/>
<feComposite in2="hardAlpha" operator="out"/>
<feColorMatrix type="matrix" values="0 0 0 0 0 0 0 0 0 0 0 0 0 0 0 0 0 0 0.1 0"/>
<feBlend mode="normal" in2="BackgroundImageFix" result="effect1_dropShadow_820_4842"/>
<feBlend mode="normal" in="SourceGraphic" in2="effect1_dropShadow_820_4842" result="shape"/>
</filter>
<clipPath id="clip0_820_4842">
<rect width="86.3018" height="274.135" fill="white" transform="translate(306.712)"/>
</clipPath>
</defs>
</svg>
