<svg width="535" height="305" viewBox="0 0 535 305" fill="none" xmlns="http://www.w3.org/2000/svg">
<rect x="1.60544" y="1.60544" width="532.193" height="301.817" rx="3.21081" fill="#044E33" fill-opacity="0.56" stroke="white" stroke-width="1.60541"/>
<path d="M268.103 0.802734V304.225" stroke="white" stroke-width="1.60541"/>
<circle cx="267.701" cy="152.112" r="46.9582" stroke="white" stroke-width="1.60541"/>
<path d="M0.802734 97.9298H43.346V208.703H0.802734" stroke="white" stroke-width="1.60541"/>
<path d="M0.802734 62.6108H86.692V243.219H0.802734" stroke="white" stroke-width="1.60541"/>
<path d="M86.6924 122.011C92.0348 125.096 96.4762 129.527 99.5744 134.863C102.673 140.199 104.32 146.253 104.351 152.423C104.383 158.594 102.799 164.665 99.7557 170.032C96.7127 175.4 92.3172 179.876 87.0069 183.016" stroke="white" stroke-width="1.60541"/>
<path d="M534.601 97.9298H492.057V208.703H534.601" stroke="white" stroke-width="1.60541"/>
<path d="M534.601 62.6108L448.711 62.6108V243.219H534.601" stroke="white" stroke-width="1.60541"/>
<path d="M448.711 122.011C443.369 125.096 438.927 129.527 435.829 134.863C432.731 140.199 431.084 146.253 431.052 152.423C431.02 158.594 432.605 164.665 435.648 170.032C438.691 175.4 443.086 179.876 448.396 183.016" stroke="white" stroke-width="1.60541"/>
</svg>
