<svg width="31" height="30" viewBox="0 0 31 30" fill="none" xmlns="http://www.w3.org/2000/svg">
<path d="M30.4875 28.6087L30.6187 28.6887C30.4839 28.7594 30.2163 28.8951 30.0785 28.9585C29.8278 29.074 29.5706 29.1787 29.3086 29.2713C29.0701 29.3559 28.8221 29.4319 28.5663 29.498C28.3129 29.5635 28.058 29.6181 27.8031 29.6607C27.5524 29.7026 27.3028 29.7343 27.056 29.7546C26.8038 29.7754 26.5509 29.7861 26.2987 29.7861C26.0464 29.7861 25.7938 29.7754 25.5412 29.7546C25.2944 29.7343 25.0449 29.7026 24.7943 29.6607C24.5395 29.6181 24.2847 29.5635 24.0316 29.4981C23.7755 29.432 23.5274 29.3558 23.2887 29.2713C23.0269 29.1787 22.7697 29.0741 22.5194 28.9585C22.2687 28.8429 22.0227 28.7152 21.783 28.5764L21.5413 28.432L21.306 28.2797C21.1278 28.162 20.9513 28.0353 20.7784 27.9012C20.6104 27.7711 20.4434 27.632 20.2793 27.4847C20.1413 27.3611 20.0184 27.2457 19.9136 27.141C19.7991 27.0264 19.6838 26.9045 19.5694 26.7763L19.4203 26.6046L19.2766 26.4316C19.1873 26.3206 19.1003 26.2076 19.0167 26.0938C18.9253 25.9697 18.8441 25.8542 18.7739 25.7488L18.6231 25.5136L18.4775 25.2703C18.339 25.0306 18.2111 24.7847 18.0958 24.5346C17.9802 24.2839 17.8755 24.0264 17.7827 23.7644C17.6984 23.526 17.6223 23.2781 17.5562 23.0221C17.4907 22.7689 17.436 22.5141 17.3935 22.2592C17.3516 22.0087 17.3196 21.7591 17.2993 21.5121C17.2787 21.2598 17.2679 21.0067 17.2679 20.7545C17.2679 20.5024 17.2787 20.2492 17.2993 19.997C17.3196 19.7501 17.3516 19.5006 17.3935 19.2501C17.436 18.9953 17.4907 18.7405 17.5562 18.4873C17.6224 18.2311 17.6984 17.9832 17.7827 17.745L17.7887 17.7313C17.8792 17.4724 17.9829 17.219 18.0968 16.9723C18.2121 16.7232 18.3393 16.4785 18.4775 16.2397L18.6223 15.9982L18.7754 15.761C18.8559 15.6403 18.9371 15.5243 19.0182 15.4143C19.0997 15.3032 19.1868 15.1909 19.2783 15.0782L19.4215 14.9045L19.5694 14.7346C19.6852 14.6068 19.8002 14.485 19.9139 14.371C20.0289 14.2547 20.1504 14.1396 20.2786 14.0256C20.3494 13.9619 20.4353 13.8877 20.5383 13.8024C20.6352 13.722 20.7252 13.6495 20.8078 13.5866L21.0792 13.3764L21.2108 13.2641L21.3894 13.0988C21.4445 13.0458 21.5009 12.9884 21.558 12.9279L21.6853 12.7888C21.8084 12.6485 21.9214 12.5081 22.0218 12.3683C22.1257 12.2242 22.2222 12.0754 22.3093 11.9242C22.4322 11.7105 22.5398 11.4929 22.6296 11.2734C22.7211 11.0484 22.7978 10.8188 22.858 10.5851C22.913 10.37 22.9558 10.1479 22.9843 9.92069C23.0112 9.70714 23.025 9.48095 23.025 9.24345C23.025 9.00552 23.0112 8.77949 22.9843 8.56638L22.9828 8.56462C22.9537 8.33227 22.9116 8.11078 22.858 7.90207C22.798 7.66943 22.7214 7.44031 22.6302 7.21721C22.5398 6.99514 22.432 6.77719 22.3093 6.56437C22.2176 6.40604 22.1202 6.25491 22.018 6.11303C21.9148 5.96924 21.8037 5.83045 21.6868 5.69826C21.6065 5.60852 21.5302 5.52686 21.4577 5.45445L21.4562 5.45298C21.3835 5.38028 21.3016 5.30362 21.2114 5.22431C21.0779 5.10505 20.9373 4.99284 20.7918 4.88797C20.6474 4.78413 20.4986 4.68764 20.3469 4.6004C20.2058 4.51962 20.0596 4.44398 19.9091 4.37451C19.7607 4.30621 19.6084 4.24394 19.4536 4.18915L19.2321 4.11499L19.0067 4.05168C18.7981 3.99808 18.5767 3.95592 18.3443 3.92684L18.3425 3.92537C18.1293 3.89849 17.9032 3.88469 17.6653 3.88469C17.4274 3.88469 17.2013 3.89849 16.9881 3.92537L16.9863 3.92684C16.7841 3.95225 16.5904 3.98735 16.4062 4.03127L16.5567 4.24908L16.7077 4.48657C16.7547 4.56045 16.8033 4.64152 16.8531 4.72773C16.9918 4.96743 17.1195 5.21329 17.235 5.46356C17.3504 5.71413 17.4551 5.97144 17.548 6.23376C17.6324 6.47213 17.7083 6.71991 17.7746 6.9759C17.8401 7.22926 17.8947 7.48423 17.9373 7.73905C17.9792 7.98991 18.011 8.23944 18.0313 8.48633C18.0522 8.73851 18.0627 8.99113 18.0627 9.24345C18.0627 9.49563 18.0522 9.74855 18.0313 10.0009C18.011 10.2478 17.9792 10.4973 17.9373 10.7482C17.8947 11.003 17.8401 11.2578 17.7746 11.511C17.7085 11.767 17.6327 12.0148 17.548 12.2533L17.5414 12.2717C17.45 12.529 17.3469 12.7813 17.2332 13.0269C17.1182 13.2757 16.991 13.5199 16.8531 13.7582L16.7084 13.9999L16.5567 14.2353C16.4792 14.3523 16.3975 14.4689 16.3129 14.5843C16.2315 14.6949 16.1447 14.8071 16.054 14.9192L15.9092 15.0938L15.7614 15.2637C15.6467 15.3912 15.5314 15.5133 15.4169 15.6278C15.3016 15.7431 15.1794 15.8586 15.0504 15.9733L14.7904 16.1961C14.7135 16.2617 14.6236 16.3333 14.5214 16.4118C14.418 16.4901 14.3119 16.5656 14.2065 16.6414L14.023 16.7671L13.7873 16.9194C13.6594 16.9959 13.5345 17.0711 13.405 17.1438C13.182 17.2668 12.9587 17.3796 12.7341 17.4806C12.5079 17.5825 12.2761 17.6757 12.0401 17.7587C11.8015 17.8433 11.5537 17.919 11.2975 17.9851C11.0445 18.0505 10.7897 18.1051 10.535 18.1477C10.3715 18.1752 10.2079 18.1981 10.0455 18.2163C9.88536 18.2339 9.7191 18.248 9.54844 18.2577L9.28906 18.2683L9.03027 18.2731C8.77795 18.2731 8.52533 18.2624 8.27315 18.2417C8.02626 18.2213 7.77672 18.1896 7.52587 18.1477C7.27134 18.1051 7.01637 18.0505 6.76316 17.9851C6.50731 17.919 6.25924 17.8433 6.02087 17.7587C5.78484 17.6752 5.55264 17.582 5.32631 17.4803C5.10233 17.3794 4.87865 17.2672 4.65731 17.1446C4.52645 17.0717 4.40263 16.9973 4.27324 16.92L4.03766 16.768C3.91487 16.6863 3.79297 16.601 3.67239 16.5117V20.7545C3.67239 20.9923 3.68634 21.2185 3.71322 21.4318L3.71468 21.4334C3.74376 21.6653 3.78563 21.8863 3.83923 22.0943C3.90121 22.3328 3.97773 22.5628 4.06747 22.7824C4.15971 23.0058 4.26692 23.2238 4.38824 23.4336C4.47959 23.5912 4.57668 23.7416 4.67831 23.8831C4.77818 24.0216 4.88966 24.1611 5.01215 24.3C5.08368 24.3827 5.16137 24.4651 5.24347 24.5469C5.32469 24.6268 5.40547 24.7028 5.48611 24.7736C5.62652 24.8971 5.76751 25.0102 5.90733 25.1108C6.05127 25.2143 6.19976 25.3104 6.35089 25.3975C6.47779 25.4706 6.60689 25.5386 6.73834 25.601C7.13078 27.352 7.88688 28.7987 8.92291 29.7856C8.70627 29.7829 8.48964 29.7725 8.27315 29.7546C8.02626 29.7343 7.77672 29.7026 7.52587 29.6607C7.27119 29.6181 7.01607 29.5635 6.76272 29.498C6.50687 29.4319 6.25909 29.3558 6.02087 29.2713C5.7587 29.1787 5.50168 29.074 5.25097 28.9585C5.00084 28.8429 4.75469 28.7152 4.51455 28.5764L4.27324 28.4318L4.03766 28.2801C3.85892 28.161 3.68208 28.034 3.50818 27.8993C3.3409 27.7697 3.17464 27.6312 3.01117 27.4844C2.87237 27.3603 2.74827 27.2438 2.64223 27.1377C2.52047 27.0144 2.40635 26.8939 2.30134 26.7763C2.16063 26.6197 2.02169 26.4532 1.88554 26.2771C1.7513 26.1035 1.6244 25.9268 1.50603 25.7483L1.35563 25.5153L1.20934 25.2712C1.07084 25.0316 0.942919 24.7856 0.827625 24.5355C0.712036 24.2849 0.607169 24.0274 0.514493 23.7653C0.429748 23.5259 0.353669 23.2774 0.287429 23.0208C0.222365 22.768 0.167875 22.5136 0.125429 22.2598C0.0835707 22.0093 0.0518479 21.7596 0.0315796 21.5128C0.0107238 21.2605 0 21.0076 0 20.7554V9.24361C0 8.99143 0.0107238 8.73851 0.0315796 8.48633C0.0518479 8.23944 0.0835707 7.98991 0.125429 7.73905C0.167875 7.48482 0.222365 7.23058 0.287429 6.97811C0.353669 6.72152 0.430041 6.47272 0.514493 6.23376C0.607169 5.97159 0.712183 5.71398 0.827772 5.46342C0.943066 5.2133 1.07084 4.96728 1.20934 4.72788L1.35416 4.48643L1.50647 4.25114C1.6244 4.07298 1.75101 3.89629 1.8851 3.72313C2.01494 3.55525 2.15417 3.38856 2.30134 3.22406C2.41707 3.09511 2.53325 2.97159 2.64913 2.85585C2.77118 2.73366 2.89176 2.61953 3.00941 2.51452C3.16583 2.37382 3.33238 2.23517 3.50833 2.09902C3.68208 1.96448 3.85892 1.83759 4.03766 1.71892L4.27162 1.56896C4.34594 1.52167 4.42804 1.47261 4.51455 1.42253C4.75469 1.28373 5.00084 1.15581 5.25097 1.04036C5.50168 0.924923 5.7587 0.82006 6.02087 0.72753C6.25983 0.642932 6.50804 0.566853 6.76448 0.500761C7.01725 0.435403 7.27163 0.380766 7.52587 0.33832C7.77672 0.296461 8.02626 0.264735 8.27315 0.244467C8.52533 0.223611 8.77795 0.212891 9.03027 0.212891C9.28245 0.212891 9.53537 0.223611 9.78769 0.244467C10.0346 0.264735 10.2841 0.296461 10.535 0.33832C10.7863 0.380178 11.0402 0.434812 11.2949 0.50061C11.5528 0.566997 11.8013 0.643079 12.0401 0.72753C12.3023 0.820353 12.5596 0.925074 12.8103 1.04081C12.9917 1.12423 13.171 1.21456 13.3471 1.31076C13.5234 1.21456 13.7027 1.12423 13.8841 1.04081C14.1348 0.925074 14.3926 0.820353 14.6546 0.72753C14.8937 0.642932 15.1423 0.566853 15.3986 0.500761C15.6514 0.435403 15.9058 0.380766 16.16 0.33832C16.4107 0.296461 16.6604 0.264735 16.9072 0.244467C17.1593 0.223611 17.4123 0.212891 17.6644 0.212891C17.9165 0.212891 18.1695 0.223611 18.4219 0.244467C18.6686 0.264735 18.9183 0.296461 19.169 0.33832C19.4231 0.380766 19.6773 0.435252 19.9298 0.50061C20.1896 0.567878 20.4378 0.64396 20.6743 0.72753C20.9362 0.820353 21.1936 0.925074 21.4442 1.04052C21.6945 1.1561 21.9403 1.28373 22.1803 1.42253L22.4218 1.56705L22.6572 1.71892C22.8358 1.83759 23.0125 1.96448 23.1861 2.09902C23.3537 2.22871 23.5199 2.36765 23.6837 2.51452C23.8129 2.62996 23.9353 2.74541 24.0501 2.86011C24.1569 2.96527 24.271 3.08659 24.3937 3.22406L24.5427 3.39443L24.6864 3.56774C24.7755 3.67833 24.8628 3.79142 24.9463 3.90525C25.0378 4.02994 25.1194 4.14538 25.1891 4.2504L25.3398 4.48525L25.4855 4.72876C25.6243 4.96861 25.7521 5.21432 25.8674 5.46459C25.983 5.71515 26.0878 5.97262 26.1805 6.23464C26.265 6.47316 26.3409 6.72093 26.4071 6.97722C26.4725 7.23043 26.5271 7.48526 26.5697 7.73993C26.6116 7.9905 26.6436 8.24003 26.6639 8.48692C26.6741 8.61308 26.6819 8.7394 26.6872 8.8657V9.62312C26.6819 9.74943 26.6741 9.87574 26.6639 10.0018C26.6436 10.2489 26.6116 10.4985 26.5697 10.7489C26.5271 11.0037 26.4725 11.2585 26.4071 11.5116C26.3409 11.7679 26.265 12.0158 26.1805 12.2542L26.1739 12.2725C26.0825 12.5294 25.9796 12.7816 25.8662 13.027C25.7509 13.2763 25.6234 13.5211 25.4855 13.7595L25.3407 14.0008L25.1891 14.2362C25.1113 14.3534 25.0298 14.4702 24.9449 14.5855C24.8634 14.6967 24.7763 14.8092 24.6848 14.9218L24.5427 15.094L24.276 15.3975H24.2722C24.1936 15.4824 24.1192 15.5604 24.0487 15.6308C23.9432 15.7364 23.8215 15.8506 23.6837 15.9739C23.5982 16.0504 23.5105 16.1259 23.4218 16.1995C23.3409 16.2669 23.2506 16.3388 23.1529 16.4137C23.1053 16.4634 22.9457 16.5737 22.887 16.62L22.7508 16.7366C22.6932 16.7868 22.6338 16.8419 22.5735 16.9002C22.5188 16.9531 22.4624 17.0103 22.405 17.0713L22.2747 17.2135C22.1567 17.3456 22.0455 17.4849 21.9416 17.6291C21.8377 17.7738 21.7412 17.9229 21.6533 18.0752C21.5304 18.2892 21.4226 18.507 21.3323 18.7276C21.2409 18.9523 21.1641 19.182 21.1042 19.4149C21.0492 19.6298 21.0064 19.8519 20.9779 20.0791C20.951 20.2922 20.937 20.5182 20.937 20.7559C20.937 20.9935 20.951 21.2192 20.9779 21.4324L20.9793 21.434C21.0084 21.666 21.0503 21.8872 21.1039 22.0956C21.166 22.3349 21.243 22.5656 21.3329 22.7858C21.423 23.0061 21.5302 23.2235 21.6526 23.4355C21.7439 23.5933 21.841 23.7435 21.9425 23.8848C22.0468 24.0295 22.1583 24.1692 22.2753 24.3018C22.3485 24.3835 22.4251 24.465 22.5055 24.5453C22.5865 24.6264 22.6687 24.7035 22.7505 24.7756C22.8901 24.8987 23.0308 25.0115 23.1702 25.1118C23.3147 25.2156 23.4634 25.3121 23.6151 25.3997C23.7565 25.4806 23.9028 25.5564 24.0535 25.6258C24.2016 25.6941 24.3539 25.7561 24.5087 25.8108C24.5937 25.8409 24.6692 25.8666 24.7301 25.8849C24.7917 25.9037 24.8654 25.9241 24.9538 25.9466L24.9554 25.9481C25.1706 26.0035 25.3924 26.046 25.6195 26.0745C25.8327 26.1014 26.0589 26.1154 26.297 26.1154C26.5351 26.1154 26.7609 26.1014 26.9742 26.0745C27.1725 26.0496 27.3668 26.014 27.5564 25.9684C27.5263 25.9146 29.4816 28.0353 30.4875 28.6087ZM13.9906 11.2722C14.0821 11.0482 14.1586 10.8185 14.2187 10.5851C14.2739 10.3706 14.3165 10.1488 14.3451 9.92201C14.373 9.6995 14.3879 9.47272 14.3879 9.24434C14.3863 9.0136 14.3716 8.78713 14.344 8.56638C14.3168 8.33946 14.2737 8.11783 14.2187 7.90296C14.1585 7.66767 14.0822 7.43914 13.992 7.21854C13.8983 6.99103 13.7908 6.77263 13.671 6.56496C13.5786 6.40692 13.4811 6.25565 13.3789 6.11362C13.2756 5.96998 13.1649 5.83133 13.0477 5.69914C12.9744 5.61763 12.8979 5.53597 12.8172 5.45549C12.7447 5.38132 12.6626 5.30494 12.5724 5.22548C12.4392 5.10622 12.2986 4.99416 12.1532 4.88929C12.0087 4.78516 11.8596 4.68881 11.7078 4.60128C11.5665 4.52035 11.4202 4.44457 11.2695 4.3751C11.1216 4.30665 10.9693 4.24452 10.8146 4.19018L10.5933 4.11601L10.3678 4.05286C10.1525 3.99749 9.93045 3.9546 9.70339 3.9261C9.49013 3.89923 9.26424 3.88542 9.02646 3.88542C8.78867 3.88542 8.56249 3.89923 8.34937 3.9261C8.12304 3.9546 7.90127 3.99734 7.68625 4.05242C7.44758 4.11425 7.21773 4.19107 6.99815 4.28081C6.77461 4.37275 6.5571 4.48025 6.34736 4.60128C6.18962 4.69263 6.03937 4.78971 5.89823 4.8912C5.75342 4.99548 5.61374 5.10681 5.48097 5.22401C5.39916 5.2973 5.3172 5.37441 5.23657 5.45504C5.14889 5.54272 5.07207 5.62394 5.00745 5.69767C4.88393 5.83955 4.77084 5.98026 4.67038 6.11979C4.56654 6.26402 4.47019 6.4125 4.3831 6.56378C4.26031 6.77792 4.15251 6.99587 4.06218 7.21692C3.97098 7.44104 3.8946 7.67016 3.83483 7.90296C3.78093 8.11181 3.73892 8.33271 3.70984 8.56521L3.70837 8.56696C3.68134 8.78037 3.66739 9.00685 3.66739 9.24434C3.66739 9.47507 3.68208 9.7017 3.70969 9.92259C3.73686 10.1491 3.7796 10.3703 3.83453 10.5844C3.89622 10.8229 3.97289 11.0528 4.06263 11.2723C4.15486 11.4959 4.26207 11.7138 4.3831 11.9236C4.47445 12.0807 4.57183 12.2313 4.67361 12.3727C4.7776 12.5171 4.88878 12.6562 5.00598 12.7888L5.1345 12.928C5.18061 12.9783 5.23701 13.035 5.30311 13.0988L5.48111 13.2638C5.62182 13.3863 5.76223 13.4991 5.90176 13.5995C6.04598 13.7032 6.19447 13.7997 6.3459 13.8868C6.55724 14.0084 6.77505 14.1159 6.99845 14.2073C7.21949 14.2982 7.4489 14.3746 7.68478 14.4351C7.89011 14.4878 8.0994 14.5288 8.31222 14.557C8.52371 14.5852 8.7377 14.6012 8.95214 14.6043C9.00149 14.6012 9.05113 14.6025 9.10048 14.6025C9.31477 14.6012 9.52861 14.5852 9.7404 14.557C9.95336 14.5288 10.1625 14.4878 10.3664 14.4351C10.4407 14.4166 10.5153 14.3953 10.5901 14.3724L10.8146 14.2983C10.9691 14.2434 11.1208 14.1816 11.2682 14.1136C11.4191 14.0441 11.5659 13.9679 11.7063 13.8868C11.7827 13.8436 11.862 13.7946 11.9438 13.7416C12.0275 13.6872 12.1049 13.6338 12.1758 13.5822L12.4405 13.3764L12.5716 13.2644L12.7504 13.0988L12.9196 12.9289L13.0471 12.7895C13.1697 12.6485 13.2828 12.5077 13.3834 12.3676C13.4872 12.2236 13.5832 12.0754 13.6704 11.9242C13.7933 11.7105 13.9007 11.493 13.9906 11.2722Z" fill="#3D41F4"/>
</svg>
