<svg width="392" height="547" viewBox="0 0 392 547" fill="none" xmlns="http://www.w3.org/2000/svg">
<g clip-path="url(#clip0_1509_15175)">
<rect x="390.868" y="0.684025" width="538.137" height="390.056" rx="2.7361" transform="rotate(90 390.868 0.684025)" fill="#2A2836" stroke="white" stroke-width="1.36805"/>
<path d="M266.607 0V51.8139H123.66V0" stroke="white" stroke-width="1.36805"/>
<path d="M312.184 0V104.605H79.1177V0" stroke="white" stroke-width="1.36805"/>
<path d="M235.532 104.605C231.55 111.112 225.832 116.521 218.947 120.295C212.061 124.068 204.248 126.074 196.286 126.113C188.323 126.151 180.489 124.222 173.563 120.515C166.636 116.809 160.859 111.456 156.807 104.988" stroke="white" stroke-width="1.36805"/>
<path d="M266.607 539.288V496.311H123.66V539.288" stroke="white" stroke-width="1.36805"/>
<path d="M312.184 539.288V452.522H79.1172V539.288" stroke="white" stroke-width="1.36805"/>
<path d="M235.531 452.522C231.55 447.126 225.832 442.639 218.946 439.509C212.061 436.379 204.248 434.715 196.285 434.683C188.323 434.651 180.489 436.252 173.562 439.326C166.636 442.4 160.859 446.84 156.807 452.205" stroke="white" stroke-width="1.36805"/>
</g>
<g clip-path="url(#clip1_1509_15175)">
<path opacity="0.1" d="M390.608 329.915H-1.88629" stroke="white" stroke-width="1.36805"/>
<circle opacity="0.1" cx="195.226" cy="329.575" r="40.0155" transform="rotate(90 195.226 329.575)" stroke="white" stroke-width="1.36805"/>
</g>
<g filter="url(#filter0_d_1509_15175)">
<path d="M152.486 182.098C158.044 182.063 162.577 186.541 162.612 192.099C162.646 197.657 158.168 202.19 152.61 202.225C147.052 202.259 142.519 197.781 142.484 192.223C142.45 186.665 146.928 182.132 152.486 182.098Z" fill="#9FFBA3"/>
</g>
<g filter="url(#filter1_d_1509_15175)">
<path d="M98.7235 203.791C104.281 203.756 108.815 208.234 108.849 213.792C108.884 219.35 104.406 223.884 98.8482 223.918C93.2902 223.953 88.7566 219.475 88.7222 213.917C88.6878 208.359 93.1655 203.825 98.7235 203.791Z" fill="#9FFBA3"/>
</g>
<g filter="url(#filter2_d_1509_15175)">
<path d="M221.339 182.098C226.897 182.063 231.43 186.541 231.465 192.099C231.499 197.657 227.021 202.19 221.463 202.225C215.905 202.259 211.372 197.781 211.337 192.223C211.303 186.665 215.781 182.132 221.339 182.098Z" fill="#9FFBA3"/>
</g>
<g filter="url(#filter3_d_1509_15175)">
<path d="M161.917 419.783C167.475 419.749 172.009 424.226 172.043 429.784C172.078 435.342 167.6 439.876 162.042 439.91C156.484 439.945 151.95 435.467 151.916 429.909C151.882 424.351 156.359 419.817 161.917 419.783Z" fill="#9FFBA3"/>
</g>
<g filter="url(#filter4_d_1509_15175)">
<path d="M104.383 329.236C109.941 329.202 114.474 333.679 114.509 339.237C114.543 344.795 110.065 349.329 104.507 349.363C98.9494 349.398 94.4158 344.92 94.3814 339.362C94.347 333.804 98.8247 329.271 104.383 329.236Z" fill="#9FFBA3"/>
</g>
<g filter="url(#filter5_d_1509_15175)">
<path d="M155.315 308.484C160.873 308.45 165.407 312.928 165.441 318.485C165.476 324.043 160.998 328.577 155.44 328.611C149.882 328.646 145.348 324.168 145.314 318.61C145.28 313.052 149.757 308.519 155.315 308.484Z" fill="#9FFBA3"/>
</g>
<g filter="url(#filter6_d_1509_15175)">
<path d="M197.759 108.529C203.317 108.495 207.85 112.972 207.885 118.53C207.919 124.088 203.441 128.622 197.883 128.656C192.325 128.691 187.792 124.213 187.757 118.655C187.723 113.097 192.201 108.564 197.759 108.529Z" fill="#9FFBA3"/>
</g>
<g filter="url(#filter7_d_1509_15175)">
<path d="M220.395 313.201C225.953 313.167 230.487 317.644 230.521 323.202C230.556 328.76 226.078 333.294 220.52 333.328C214.962 333.363 210.429 328.885 210.394 323.327C210.36 317.769 214.837 313.235 220.395 313.201Z" fill="#9FFBA3"/>
</g>
<g filter="url(#filter8_d_1509_15175)">
<path d="M277.93 201.906C283.488 201.872 288.022 206.349 288.056 211.907C288.09 217.465 283.613 221.999 278.055 222.033C272.497 222.068 267.963 217.59 267.929 212.032C267.894 206.474 272.372 201.941 277.93 201.906Z" fill="#9FFBA3"/>
</g>
<g filter="url(#filter9_d_1509_15175)">
<path d="M276.987 327.349C282.545 327.315 287.078 331.793 287.113 337.351C287.147 342.909 282.669 347.442 277.111 347.477C271.553 347.511 267.02 343.033 266.985 337.475C266.951 331.917 271.429 327.384 276.987 327.349Z" fill="#9FFBA3"/>
</g>
<g filter="url(#filter10_d_1509_15175)">
<path d="M229.827 419.783C235.385 419.749 239.919 424.226 239.953 429.784C239.987 435.342 235.51 439.876 229.952 439.91C224.394 439.945 219.86 435.467 219.826 429.909C219.791 424.351 224.269 419.817 229.827 419.783Z" fill="#9FFBA3"/>
</g>
<defs>
<filter id="filter0_d_1509_15175" x="132.683" y="172.296" width="39.7303" height="39.7303" filterUnits="userSpaceOnUse" color-interpolation-filters="sRGB">
<feFlood flood-opacity="0" result="BackgroundImageFix"/>
<feColorMatrix in="SourceAlpha" type="matrix" values="0 0 0 0 0 0 0 0 0 0 0 0 0 0 0 0 0 0 127 0" result="hardAlpha"/>
<feOffset/>
<feGaussianBlur stdDeviation="4.86959"/>
<feComposite in2="hardAlpha" operator="out"/>
<feColorMatrix type="matrix" values="0 0 0 0 0 0 0 0 0 0 0 0 0 0 0 0 0 0 0.1 0"/>
<feBlend mode="normal" in2="BackgroundImageFix" result="effect1_dropShadow_1509_15175"/>
<feBlend mode="normal" in="SourceGraphic" in2="effect1_dropShadow_1509_15175" result="shape"/>
</filter>
<filter id="filter1_d_1509_15175" x="78.9205" y="193.989" width="39.7303" height="39.7303" filterUnits="userSpaceOnUse" color-interpolation-filters="sRGB">
<feFlood flood-opacity="0" result="BackgroundImageFix"/>
<feColorMatrix in="SourceAlpha" type="matrix" values="0 0 0 0 0 0 0 0 0 0 0 0 0 0 0 0 0 0 127 0" result="hardAlpha"/>
<feOffset/>
<feGaussianBlur stdDeviation="4.86959"/>
<feComposite in2="hardAlpha" operator="out"/>
<feColorMatrix type="matrix" values="0 0 0 0 0 0 0 0 0 0 0 0 0 0 0 0 0 0 0.1 0"/>
<feBlend mode="normal" in2="BackgroundImageFix" result="effect1_dropShadow_1509_15175"/>
<feBlend mode="normal" in="SourceGraphic" in2="effect1_dropShadow_1509_15175" result="shape"/>
</filter>
<filter id="filter2_d_1509_15175" x="201.536" y="172.296" width="39.7303" height="39.7303" filterUnits="userSpaceOnUse" color-interpolation-filters="sRGB">
<feFlood flood-opacity="0" result="BackgroundImageFix"/>
<feColorMatrix in="SourceAlpha" type="matrix" values="0 0 0 0 0 0 0 0 0 0 0 0 0 0 0 0 0 0 127 0" result="hardAlpha"/>
<feOffset/>
<feGaussianBlur stdDeviation="4.86959"/>
<feComposite in2="hardAlpha" operator="out"/>
<feColorMatrix type="matrix" values="0 0 0 0 0 0 0 0 0 0 0 0 0 0 0 0 0 0 0.1 0"/>
<feBlend mode="normal" in2="BackgroundImageFix" result="effect1_dropShadow_1509_15175"/>
<feBlend mode="normal" in="SourceGraphic" in2="effect1_dropShadow_1509_15175" result="shape"/>
</filter>
<filter id="filter3_d_1509_15175" x="142.114" y="409.982" width="39.7303" height="39.7303" filterUnits="userSpaceOnUse" color-interpolation-filters="sRGB">
<feFlood flood-opacity="0" result="BackgroundImageFix"/>
<feColorMatrix in="SourceAlpha" type="matrix" values="0 0 0 0 0 0 0 0 0 0 0 0 0 0 0 0 0 0 127 0" result="hardAlpha"/>
<feOffset/>
<feGaussianBlur stdDeviation="4.86959"/>
<feComposite in2="hardAlpha" operator="out"/>
<feColorMatrix type="matrix" values="0 0 0 0 0 0 0 0 0 0 0 0 0 0 0 0 0 0 0.1 0"/>
<feBlend mode="normal" in2="BackgroundImageFix" result="effect1_dropShadow_1509_15175"/>
<feBlend mode="normal" in="SourceGraphic" in2="effect1_dropShadow_1509_15175" result="shape"/>
</filter>
<filter id="filter4_d_1509_15175" x="84.5797" y="319.435" width="39.7303" height="39.7303" filterUnits="userSpaceOnUse" color-interpolation-filters="sRGB">
<feFlood flood-opacity="0" result="BackgroundImageFix"/>
<feColorMatrix in="SourceAlpha" type="matrix" values="0 0 0 0 0 0 0 0 0 0 0 0 0 0 0 0 0 0 127 0" result="hardAlpha"/>
<feOffset/>
<feGaussianBlur stdDeviation="4.86959"/>
<feComposite in2="hardAlpha" operator="out"/>
<feColorMatrix type="matrix" values="0 0 0 0 0 0 0 0 0 0 0 0 0 0 0 0 0 0 0.1 0"/>
<feBlend mode="normal" in2="BackgroundImageFix" result="effect1_dropShadow_1509_15175"/>
<feBlend mode="normal" in="SourceGraphic" in2="effect1_dropShadow_1509_15175" result="shape"/>
</filter>
<filter id="filter5_d_1509_15175" x="135.512" y="298.683" width="39.7303" height="39.7303" filterUnits="userSpaceOnUse" color-interpolation-filters="sRGB">
<feFlood flood-opacity="0" result="BackgroundImageFix"/>
<feColorMatrix in="SourceAlpha" type="matrix" values="0 0 0 0 0 0 0 0 0 0 0 0 0 0 0 0 0 0 127 0" result="hardAlpha"/>
<feOffset/>
<feGaussianBlur stdDeviation="4.86959"/>
<feComposite in2="hardAlpha" operator="out"/>
<feColorMatrix type="matrix" values="0 0 0 0 0 0 0 0 0 0 0 0 0 0 0 0 0 0 0.1 0"/>
<feBlend mode="normal" in2="BackgroundImageFix" result="effect1_dropShadow_1509_15175"/>
<feBlend mode="normal" in="SourceGraphic" in2="effect1_dropShadow_1509_15175" result="shape"/>
</filter>
<filter id="filter6_d_1509_15175" x="177.956" y="98.7276" width="39.7303" height="39.7303" filterUnits="userSpaceOnUse" color-interpolation-filters="sRGB">
<feFlood flood-opacity="0" result="BackgroundImageFix"/>
<feColorMatrix in="SourceAlpha" type="matrix" values="0 0 0 0 0 0 0 0 0 0 0 0 0 0 0 0 0 0 127 0" result="hardAlpha"/>
<feOffset/>
<feGaussianBlur stdDeviation="4.86959"/>
<feComposite in2="hardAlpha" operator="out"/>
<feColorMatrix type="matrix" values="0 0 0 0 0 0 0 0 0 0 0 0 0 0 0 0 0 0 0.1 0"/>
<feBlend mode="normal" in2="BackgroundImageFix" result="effect1_dropShadow_1509_15175"/>
<feBlend mode="normal" in="SourceGraphic" in2="effect1_dropShadow_1509_15175" result="shape"/>
</filter>
<filter id="filter7_d_1509_15175" x="200.592" y="303.399" width="39.7303" height="39.7303" filterUnits="userSpaceOnUse" color-interpolation-filters="sRGB">
<feFlood flood-opacity="0" result="BackgroundImageFix"/>
<feColorMatrix in="SourceAlpha" type="matrix" values="0 0 0 0 0 0 0 0 0 0 0 0 0 0 0 0 0 0 127 0" result="hardAlpha"/>
<feOffset/>
<feGaussianBlur stdDeviation="4.86959"/>
<feComposite in2="hardAlpha" operator="out"/>
<feColorMatrix type="matrix" values="0 0 0 0 0 0 0 0 0 0 0 0 0 0 0 0 0 0 0.1 0"/>
<feBlend mode="normal" in2="BackgroundImageFix" result="effect1_dropShadow_1509_15175"/>
<feBlend mode="normal" in="SourceGraphic" in2="effect1_dropShadow_1509_15175" result="shape"/>
</filter>
<filter id="filter8_d_1509_15175" x="258.127" y="192.105" width="39.7303" height="39.7303" filterUnits="userSpaceOnUse" color-interpolation-filters="sRGB">
<feFlood flood-opacity="0" result="BackgroundImageFix"/>
<feColorMatrix in="SourceAlpha" type="matrix" values="0 0 0 0 0 0 0 0 0 0 0 0 0 0 0 0 0 0 127 0" result="hardAlpha"/>
<feOffset/>
<feGaussianBlur stdDeviation="4.86959"/>
<feComposite in2="hardAlpha" operator="out"/>
<feColorMatrix type="matrix" values="0 0 0 0 0 0 0 0 0 0 0 0 0 0 0 0 0 0 0.1 0"/>
<feBlend mode="normal" in2="BackgroundImageFix" result="effect1_dropShadow_1509_15175"/>
<feBlend mode="normal" in="SourceGraphic" in2="effect1_dropShadow_1509_15175" result="shape"/>
</filter>
<filter id="filter9_d_1509_15175" x="257.184" y="317.548" width="39.7303" height="39.7303" filterUnits="userSpaceOnUse" color-interpolation-filters="sRGB">
<feFlood flood-opacity="0" result="BackgroundImageFix"/>
<feColorMatrix in="SourceAlpha" type="matrix" values="0 0 0 0 0 0 0 0 0 0 0 0 0 0 0 0 0 0 127 0" result="hardAlpha"/>
<feOffset/>
<feGaussianBlur stdDeviation="4.86959"/>
<feComposite in2="hardAlpha" operator="out"/>
<feColorMatrix type="matrix" values="0 0 0 0 0 0 0 0 0 0 0 0 0 0 0 0 0 0 0.1 0"/>
<feBlend mode="normal" in2="BackgroundImageFix" result="effect1_dropShadow_1509_15175"/>
<feBlend mode="normal" in="SourceGraphic" in2="effect1_dropShadow_1509_15175" result="shape"/>
</filter>
<filter id="filter10_d_1509_15175" x="210.024" y="409.982" width="39.7303" height="39.7303" filterUnits="userSpaceOnUse" color-interpolation-filters="sRGB">
<feFlood flood-opacity="0" result="BackgroundImageFix"/>
<feColorMatrix in="SourceAlpha" type="matrix" values="0 0 0 0 0 0 0 0 0 0 0 0 0 0 0 0 0 0 127 0" result="hardAlpha"/>
<feOffset/>
<feGaussianBlur stdDeviation="4.86959"/>
<feComposite in2="hardAlpha" operator="out"/>
<feColorMatrix type="matrix" values="0 0 0 0 0 0 0 0 0 0 0 0 0 0 0 0 0 0 0.1 0"/>
<feBlend mode="normal" in2="BackgroundImageFix" result="effect1_dropShadow_1509_15175"/>
<feBlend mode="normal" in="SourceGraphic" in2="effect1_dropShadow_1509_15175" result="shape"/>
</filter>
<clipPath id="clip0_1509_15175">
<rect width="546.107" height="391.424" fill="white" transform="matrix(0 1 -1 0 391.552 0)"/>
</clipPath>
<clipPath id="clip1_1509_15175">
<rect width="81.1144" height="390.481" fill="white" transform="matrix(0 1 -1 0 390.608 288.876)"/>
</clipPath>
</defs>
</svg>
