<svg width="678" height="385" viewBox="0 0 678 385" fill="none" xmlns="http://www.w3.org/2000/svg">
<rect x="1.0369" y="1.03702" width="675.245" height="382.945" rx="4.07388" fill="#2A2836" stroke="white" stroke-width="2.03694"/>
<path d="M0.0180664 123.253H53.997V263.802H0.0180664" stroke="white" stroke-width="2.03694"/>
<path d="M0.0182495 78.4404H108.995V307.596H0.0182495" stroke="white" stroke-width="2.03694"/>
<path d="M108.994 153.807C115.773 157.721 121.408 163.343 125.339 170.113C129.27 176.883 131.36 184.565 131.4 192.394C131.44 200.223 129.43 207.926 125.569 214.736C121.708 221.546 116.131 227.226 109.393 231.21" stroke="white" stroke-width="2.03694"/>
<path d="M677.3 123.253H623.321V263.802H677.3" stroke="white" stroke-width="2.03694"/>
<path d="M677.3 78.4404L568.324 78.4404V307.596H677.3" stroke="white" stroke-width="2.03694"/>
<path d="M568.324 153.807C561.546 157.721 555.91 163.343 551.979 170.113C548.048 176.883 545.959 184.565 545.918 192.394C545.878 200.223 547.888 207.926 551.749 214.736C555.61 221.546 561.187 227.226 567.925 231.21" stroke="white" stroke-width="2.03694"/>
</svg>
