<svg width="409" height="77" viewBox="0 0 409 77" fill="none" xmlns="http://www.w3.org/2000/svg">
<path d="M110.456 15.4729C115.32 15.4729 119.146 16.8309 121.932 19.5227C124.718 22.2262 126.123 25.8745 126.123 30.4905C126.123 33.4657 125.485 36.0868 124.234 38.3538C122.982 40.6321 121.152 42.4032 118.768 43.6784C116.383 44.9653 113.561 45.6025 110.314 45.6025H100.834V60.8918H91.6016V15.4729H110.456ZM108.614 37.6451C111.224 37.6451 113.183 36.9368 114.494 35.5203C115.816 34.1033 116.466 32.356 116.466 30.2781C116.466 28.4835 115.828 26.9131 114.529 25.5794C113.242 24.2335 111.318 23.5721 108.756 23.5721H100.834V37.6451H108.614Z" fill="#3D41F4"/>
<path d="M147.493 28.7905C148.721 28.7905 149.689 28.9088 150.398 29.133V36.7479C150.032 36.7007 149.465 36.6773 148.709 36.6773C145.876 36.6773 143.704 37.4445 142.192 38.9794C140.681 40.5142 139.925 42.675 139.925 45.4613V60.8919H131.071V29.133H139.052L139.784 33.702C140.244 32.0965 141.177 30.8685 142.57 30.0419C143.963 29.204 145.604 28.7905 147.493 28.7905Z" fill="#3D41F4"/>
<path d="M155.345 44.9416C155.345 41.695 156.077 38.7904 157.541 36.2521C159.005 33.7021 161.071 31.7068 163.74 30.2665C166.396 28.8261 169.418 28.1057 172.818 28.1057C176.207 28.1057 179.241 28.8261 181.909 30.2665C184.589 31.7068 186.656 33.7021 188.119 36.2521C189.583 38.7904 190.315 41.695 190.315 44.9416C190.315 48.2003 189.583 51.1045 188.119 53.6667C186.656 56.2167 184.589 58.2237 181.933 59.664C179.265 61.1044 176.231 61.8248 172.818 61.8248C169.418 61.8248 166.408 61.1044 163.763 59.664C161.13 58.2237 159.064 56.2284 157.577 53.6784C156.089 51.1283 155.345 48.2238 155.345 44.9416ZM164.342 44.9416C164.342 47.551 165.133 49.7114 166.714 51.4352C168.285 53.147 170.327 54.0091 172.818 54.0091C175.322 54.0091 177.376 53.147 178.958 51.4352C180.528 49.7114 181.319 47.551 181.319 44.9416C181.319 42.2971 180.54 40.1363 178.993 38.4601C177.435 36.7952 175.368 35.9569 172.818 35.9569C170.304 35.9569 168.261 36.7952 166.691 38.4835C165.121 40.1601 164.342 42.3205 164.342 44.9416Z" fill="#3D41F4"/>
<path d="M196.373 28.6608C196.373 25.8152 197.058 23.3363 198.428 21.2227C199.797 19.0975 201.745 17.4564 204.272 16.3112C206.798 15.1543 209.726 14.5757 213.044 14.5757C216.291 14.5757 219.159 15.1426 221.639 16.2757C224.118 17.3975 226.066 18.9913 227.483 21.0455C228.899 23.1 229.608 25.4966 229.608 28.2356H220.104C220.057 26.4411 219.337 25.0125 217.955 23.9501C216.574 22.8873 214.756 22.3562 212.524 22.3562C210.494 22.3562 208.876 22.8283 207.684 23.7728C206.479 24.7294 205.877 25.9687 205.877 27.5157C205.877 29.0857 206.397 30.2309 207.436 30.9512C208.475 31.683 209.939 32.2616 211.828 32.6985L219.136 34.4692C222.819 35.2724 225.688 36.7952 227.742 39.0266C229.796 41.2697 230.824 44.0681 230.824 47.4326C230.824 50.3606 230.104 52.9107 228.663 55.0832C227.223 57.2439 225.169 58.9084 222.524 60.0774C219.868 61.246 216.798 61.8247 213.315 61.8247C208.085 61.8247 203.835 60.5612 200.577 58.0229C197.306 55.4846 195.547 52.0255 195.264 47.6454H204.744C204.838 49.6285 205.653 51.1872 207.212 52.3086C208.77 53.4421 210.824 54.009 213.386 54.009C215.783 54.009 217.672 53.5131 219.041 52.5214C220.411 51.5296 221.108 50.1717 221.108 48.4361C221.108 46.984 220.635 45.8743 219.715 45.1188C218.794 44.3633 217.542 43.7608 215.948 43.3243L208.439 41.4825C204.472 40.5852 201.474 39.0383 199.431 36.8307C197.389 34.6348 196.373 31.9075 196.373 28.6608Z" fill="#3D41F4"/>
<path d="M235.771 44.9416C235.771 41.695 236.503 38.7904 237.967 36.2521C239.431 33.7021 241.497 31.7068 244.166 30.2665C246.822 28.8261 249.845 28.1057 253.245 28.1057C256.633 28.1057 259.667 28.8261 262.336 30.2665C265.016 31.7068 267.082 33.7021 268.546 36.2521C270.009 38.7904 270.742 41.695 270.742 44.9416C270.742 48.2003 270.009 51.1045 268.546 53.6667C267.082 56.2167 265.016 58.2237 262.359 59.664C259.691 61.1044 256.657 61.8248 253.245 61.8248C249.845 61.8248 246.834 61.1044 244.189 59.664C241.556 58.2237 239.49 56.2284 238.003 53.6784C236.515 51.1283 235.771 48.2238 235.771 44.9416ZM244.768 44.9416C244.768 47.551 245.559 49.7114 247.141 51.4352C248.711 53.147 250.754 54.0091 253.245 54.0091C255.748 54.0091 257.802 53.147 259.384 51.4352C260.954 49.7114 261.745 47.551 261.745 44.9416C261.745 42.2971 260.966 40.1363 259.419 38.4601C257.861 36.7952 255.795 35.9569 253.245 35.9569C250.73 35.9569 248.688 36.7952 247.117 38.4835C245.547 40.1601 244.768 42.3205 244.768 44.9416Z" fill="#3D41F4"/>
<path d="M275.69 44.9416C275.69 41.6005 276.398 38.6608 277.815 36.1104C279.231 33.5603 281.227 31.5889 283.8 30.1958C286.374 28.8023 289.326 28.1057 292.679 28.1057C297.165 28.1057 300.884 29.2864 303.812 31.6479C306.74 34.009 308.393 37.1732 308.759 41.1402H299.763C299.349 39.4398 298.499 38.1294 297.224 37.2321C295.937 36.3349 294.379 35.8862 292.537 35.8862C290.187 35.8862 288.287 36.7128 286.846 38.3539C285.406 40.0067 284.686 42.2264 284.686 45.0127C284.686 47.7634 285.394 49.9593 286.811 51.6004C288.228 53.2532 290.14 54.0798 292.537 54.0798C294.426 54.0798 296.02 53.5956 297.33 52.6277C298.629 51.6594 299.444 50.3962 299.763 48.8496H308.759C308.346 52.7339 306.658 55.8626 303.706 58.2474C300.754 60.6323 297.082 61.8248 292.679 61.8248C289.326 61.8248 286.374 61.1282 283.8 59.7351C281.227 58.3419 279.231 56.3702 277.815 53.8201C276.398 51.2697 275.69 48.3183 275.69 44.9416Z" fill="#3D41F4"/>
<path d="M313.707 44.9416C313.707 41.6005 314.415 38.6608 315.831 36.1104C317.248 33.5603 319.244 31.5889 321.817 30.1958C324.391 28.8023 327.343 28.1057 330.696 28.1057C335.182 28.1057 338.901 29.2864 341.829 31.6479C344.757 34.009 346.41 37.1732 346.776 41.1402H337.779C337.366 39.4398 336.516 38.1294 335.241 37.2321C333.954 36.3349 332.396 35.8862 330.554 35.8862C328.204 35.8862 326.304 36.7128 324.863 38.3539C323.423 40.0067 322.703 42.2264 322.703 45.0127C322.703 47.7634 323.411 49.9593 324.828 51.6004C326.245 53.2532 328.157 54.0798 330.554 54.0798C332.443 54.0798 334.037 53.5956 335.347 52.6277C336.646 51.6594 337.461 50.3962 337.779 48.8496H346.776C346.363 52.7339 344.674 55.8626 341.723 58.2474C338.771 60.6323 335.099 61.8248 330.696 61.8248C327.343 61.8248 324.391 61.1282 321.817 59.7351C319.244 58.3419 317.248 56.3702 315.831 53.8201C314.415 51.2697 313.707 48.3183 313.707 44.9416Z" fill="#3D41F4"/>
<path d="M384.096 50.821C383.388 54.1504 381.582 56.8071 378.701 58.814C375.82 60.8213 372.397 61.8248 368.43 61.8248C365.135 61.8248 362.219 61.1165 359.681 59.6995C357.143 58.283 355.183 56.2874 353.801 53.7139C352.42 51.14 351.724 48.2003 351.724 44.8826C351.724 41.5298 352.42 38.5897 353.801 36.0397C355.183 33.4896 357.131 31.5296 359.646 30.1603C362.16 28.7906 365.017 28.1057 368.229 28.1057C371.334 28.1057 374.085 28.7433 376.469 30.042C378.854 31.3289 380.72 33.1355 382.042 35.4493C383.364 37.7636 384.025 40.3964 384.025 43.3244C384.025 44.493 383.907 45.8744 383.648 47.4327H360.437C360.531 49.6052 361.31 51.3525 362.774 52.6749C364.238 53.997 366.127 54.6701 368.43 54.6701C370.141 54.6701 371.617 54.316 372.857 53.6311C374.108 52.9346 374.994 52.0018 375.525 50.821H384.096ZM375.006 41.5533C374.958 39.617 374.273 38.0939 372.963 36.9959C371.653 35.8863 369.976 35.3314 367.945 35.3314C365.82 35.3314 364.073 35.898 362.704 37.0315C361.334 38.1532 360.602 39.6643 360.507 41.5533H375.006Z" fill="#3D41F4"/>
<path d="M405.466 28.7905C406.694 28.7905 407.662 28.9088 408.371 29.133V36.7479C408.005 36.7007 407.438 36.6773 406.683 36.6773C403.849 36.6773 401.677 37.4445 400.166 38.9794C398.654 40.5142 397.899 42.675 397.899 45.4613V60.8919H389.044V29.133H397.025L397.757 33.702C398.217 32.0965 399.15 30.8685 400.543 30.0419C401.936 29.204 403.577 28.7905 405.466 28.7905Z" fill="#3D41F4"/>
<path fill-rule="evenodd" clip-rule="evenodd" d="M67.4527 64.0906H67.303C65.0678 64.0894 63.037 63.2039 61.3442 62.0715C60.4072 61.4453 59.6725 60.6357 58.9703 59.7861C58.8656 59.6595 58.7896 59.5563 58.6951 59.4138C58.5035 59.125 58.3455 58.9055 58.1739 58.5978C57.3893 57.1907 56.695 55.3825 56.6938 53.4818V52.6099C56.695 50.3724 57.5794 48.3455 58.7125 46.6515C59.1373 46.0161 60.0096 45.0735 60.6132 44.5829C60.8604 44.3822 61.0981 44.1834 61.3703 44.0024C61.659 43.8107 61.8786 43.6528 62.1863 43.4812C63.5971 42.6943 65.4 42.0007 67.3071 42.0007H68.1704C70.8644 42.0007 73.6756 43.3428 75.5586 45.2258C76.2329 45.9001 76.8365 46.656 77.3032 47.4935C78.0901 48.9044 78.7837 50.7073 78.7837 52.614V53.4773C78.7837 54.9683 78.2413 56.77 77.7337 57.7773C77.1369 58.9614 76.2144 60.3738 75.1897 61.2302C75.102 61.3035 75.0869 61.3005 74.9977 61.3833L74.0812 62.1059C72.8676 62.9095 71.8891 63.411 70.4052 63.7799C69.2097 64.077 68.6198 64.0898 67.4527 64.0906ZM64.1724 58.7119C64.35 58.475 64.5144 58.2561 64.7087 57.9968C64.9268 57.7062 65.0844 57.3895 65.3203 57.3755L70.2843 57.383L71.349 58.7535C71.5357 58.9992 71.6978 59.2226 71.886 59.469C72.0429 59.6746 72.301 59.9701 72.4031 60.1644C72.3328 60.3587 72.1589 60.6304 72.0527 60.8111C71.9288 61.0224 71.8199 61.2231 71.6918 61.4419C70.9037 62.7885 71.1116 62.8309 70.3387 63.0221C68.8549 63.3895 67.4406 63.4613 65.9227 63.1929C65.6457 63.1442 65.3652 63.0796 65.1033 63.0153C64.7665 62.9322 64.7949 62.8108 64.6191 62.55L63.1058 60.1644L64.1724 58.7119ZM73.0271 59.7056C72.9383 59.5139 71.479 57.617 71.3168 57.4053C71.1332 57.165 70.9241 56.973 70.9521 56.7829L71.5504 54.4006C71.6872 53.8533 71.8259 53.3193 71.9537 52.7758C72.0111 52.5305 71.9609 52.5668 72.1892 52.4908L74.7804 51.631C75.1886 51.4949 75.8984 51.2107 76.2812 51.1453C76.4475 51.318 78.0002 53.1636 78.0232 53.2411C78.1922 53.8046 77.6521 55.9264 77.4627 56.4707C77.132 57.4201 76.6562 58.3121 76.152 58.9999C75.9173 59.3201 75.9951 59.2494 75.5246 59.3219C75.2426 59.3654 74.983 59.4073 74.7041 59.4512C74.1621 59.5362 73.5672 59.6591 73.0271 59.7056ZM62.4319 59.6995C61.9667 59.678 60.5641 59.4123 59.9136 59.3144C59.4533 59.2449 59.5425 59.2951 59.3066 58.975C58.8187 58.3136 58.3217 57.3641 58.0035 56.4382C57.8281 55.9283 57.263 53.709 57.4649 53.2105L58.7552 51.6559C58.8969 51.4756 59.0424 51.3044 59.2004 51.1321L63.4388 52.5494C63.6176 52.8627 63.8625 54.1433 63.9785 54.6074C64.1535 55.307 64.3198 55.9789 64.4993 56.6793C64.564 56.9306 64.5141 56.9503 64.3863 57.1139L62.9996 58.9636C62.8159 59.2082 62.6349 59.478 62.4319 59.6995ZM71.2458 43.3939C71.4854 43.3655 72.5104 43.9072 72.7398 44.0326C74.0411 44.7458 75.3379 45.9122 76.1675 47.1186C76.787 48.0193 76.6887 47.7933 76.4974 48.6047C76.361 49.1853 76.2193 49.7628 76.0885 50.3512L73.7701 51.1389C73.3797 51.2689 72.9919 51.3986 72.6053 51.5271C71.764 51.8075 71.8362 51.8778 71.5338 51.6246L68.1322 48.9131V44.6275L71.2458 43.3939ZM63.7151 51.7799C63.6236 51.7958 60.0365 50.6109 59.5361 50.4189C59.3146 50.3342 59.3187 50.0459 59.2571 49.7904C59.1354 49.2877 59.0281 48.8009 58.9037 48.2884C58.8002 47.8624 58.7771 47.9354 58.9797 47.6096C59.9775 46.0059 61.6129 44.4646 63.3934 43.6966C64.132 43.378 63.9672 43.2975 64.7216 43.5934C65.5905 43.9344 66.4828 44.3123 67.3453 44.629V48.9131L63.7151 51.7799Z" fill="#3D41F4"/>
<path d="M78.4834 73.2212L78.8209 73.4272C78.4739 73.6089 77.7853 73.9582 77.4308 74.1215C76.7856 74.4185 76.1238 74.688 75.4495 74.9265C74.8358 75.1442 74.1978 75.3396 73.5394 75.5097C72.8874 75.6783 72.2313 75.8189 71.5755 75.9285C70.9304 76.0362 70.2878 76.1178 69.6529 76.17C69.0039 76.2236 68.3531 76.2512 67.7042 76.2512C67.0548 76.2512 66.4048 76.2236 65.7547 76.17C65.1197 76.1178 64.4776 76.0362 63.8328 75.9285C63.1771 75.8189 62.5213 75.6783 61.8701 75.5101C61.2109 75.34 60.5726 75.1438 59.9584 74.9265C59.2845 74.688 58.6227 74.4189 57.9787 74.1215C57.3335 73.824 56.7004 73.4952 56.0836 73.138L55.4615 72.7665L54.856 72.3746C54.3976 72.0718 53.9433 71.7456 53.4984 71.4006C53.0661 71.0657 52.6363 70.7078 52.2141 70.3287C51.8589 70.0109 51.5425 69.7138 51.273 69.4443C50.9782 69.1495 50.6816 68.8358 50.3871 68.5058L50.0035 68.064L49.6339 67.6188C49.4041 67.3331 49.1799 67.0424 48.9649 66.7495C48.7298 66.4301 48.5208 66.133 48.3401 65.8617L47.952 65.2566L47.5774 64.6303C47.221 64.0135 46.8918 63.3808 46.5951 62.7371C46.2977 62.092 46.0282 61.4294 45.7893 60.7551C45.5724 60.1417 45.3766 59.5038 45.2065 58.845C45.038 58.1934 44.8974 57.5377 44.7878 56.8819C44.68 56.2371 44.5976 55.595 44.5455 54.9593C44.4926 54.3099 44.4646 53.6587 44.4646 53.0098C44.4646 52.3608 44.4926 51.7092 44.5455 51.0603C44.5976 50.4249 44.68 49.7828 44.7878 49.1384C44.8974 48.4827 45.038 47.8269 45.2065 47.1753C45.377 46.5162 45.5724 45.8782 45.7893 45.2651L45.8048 45.23C46.0376 44.5637 46.3045 43.9117 46.5978 43.2767C46.8945 42.6357 47.2218 42.0061 47.5774 41.3915L47.9501 40.7702L48.3439 40.1598C48.551 39.8491 48.76 39.5505 48.9687 39.2674C49.1784 38.9817 49.4026 38.6925 49.638 38.4027L50.0065 37.9555L50.3871 37.5182C50.6853 37.1894 50.9813 36.8761 51.2738 36.5828C51.5697 36.2835 51.8823 35.9872 52.2123 35.6939C52.3944 35.5298 52.6155 35.339 52.8805 35.1194C53.1299 34.9127 53.3616 34.7259 53.574 34.5642L54.2725 34.0233L54.6111 33.7342L55.0707 33.309C55.2124 33.1725 55.3576 33.0248 55.5046 32.8691L55.8323 32.5111C56.149 32.1502 56.4397 31.7889 56.6982 31.4291C56.9654 31.0583 57.2137 30.6754 57.4378 30.2861C57.7542 29.7362 58.0312 29.1764 58.2621 28.6114C58.4976 28.0324 58.6949 27.4416 58.8499 26.8403C58.9916 26.2866 59.1016 25.7152 59.1749 25.1305C59.2441 24.5809 59.2796 23.9989 59.2796 23.3877C59.2796 22.7754 59.2441 22.1938 59.1749 21.6454L59.1711 21.6408C59.0963 21.0429 58.9878 20.4729 58.8499 19.9359C58.6957 19.3372 58.4984 18.7476 58.2637 18.1735C58.0312 17.602 57.7538 17.0412 57.4378 16.4935C57.202 16.0861 56.9514 15.6972 56.6883 15.3321C56.4226 14.962 56.1369 14.6049 55.8361 14.2647C55.6293 14.0338 55.4332 13.8236 55.2465 13.6373L55.2427 13.6335C55.0556 13.4464 54.8447 13.2491 54.6126 13.0451C54.2691 12.7382 53.9074 12.4494 53.5328 12.1795C53.1613 11.9123 52.7784 11.664 52.388 11.4395C52.0248 11.2316 51.6487 11.037 51.2613 10.8582C50.8796 10.6825 50.4877 10.5222 50.0893 10.3812L49.5193 10.1904L48.9392 10.0275C48.4025 9.88953 47.8325 9.78106 47.2346 9.70622L47.2301 9.70244C46.6813 9.63327 46.0996 9.59774 45.4873 9.59774C44.8751 9.59774 44.2934 9.63327 43.7446 9.70244L43.7401 9.70622C43.2196 9.77161 42.7211 9.86193 42.2472 9.97494L42.6346 10.5354L43.0231 11.1466C43.144 11.3367 43.2691 11.5453 43.3973 11.7672C43.7541 12.384 44.0829 13.0167 44.3799 13.6607C44.677 14.3055 44.9465 14.9677 45.1854 15.6427C45.4027 16.2561 45.5981 16.8938 45.7685 17.5525C45.9371 18.2045 46.0777 18.8606 46.1873 19.5164C46.295 20.1619 46.377 20.804 46.4292 21.4394C46.4829 22.0883 46.5101 22.7384 46.5101 23.3877C46.5101 24.0367 46.4829 24.6875 46.4292 25.3368C46.377 25.9722 46.295 26.6143 46.1873 27.2599C46.0777 27.9156 45.9371 28.5714 45.7685 29.2229C45.5985 29.8817 45.4034 30.5193 45.1854 31.1331L45.1684 31.1804C44.9333 31.8425 44.6679 32.4919 44.3754 33.1238C44.0795 33.764 43.7522 34.3926 43.3973 35.0056L43.025 35.6277L42.6346 36.2336C42.435 36.5344 42.2249 36.8345 42.0072 37.1316C41.7978 37.4162 41.5744 37.7049 41.3408 37.9933L40.9682 38.4427L40.5879 38.88C40.2928 39.2081 39.9961 39.5221 39.7013 39.8169C39.4046 40.1136 39.0901 40.4107 38.7583 40.7059L38.0893 41.2792C37.8913 41.4482 37.6599 41.6323 37.3969 41.8345C37.1308 42.0359 36.8579 42.2302 36.5866 42.4252L36.1145 42.7487L35.5079 43.1407C35.1787 43.3376 34.8574 43.5311 34.5241 43.7182C33.9503 44.0345 33.3755 44.3248 32.7976 44.5848C32.2155 44.8471 31.6191 45.0868 31.0118 45.3003C30.3976 45.518 29.76 45.713 29.1008 45.8831C28.4496 46.0513 27.7939 46.1919 27.1385 46.3015C26.7178 46.3722 26.2968 46.4311 25.8788 46.478C25.4668 46.5233 25.039 46.5596 24.5998 46.5846L23.9323 46.6118L23.2664 46.6243C22.617 46.6243 21.967 46.5967 21.318 46.5434C20.6827 46.4908 20.0405 46.4092 19.395 46.3015C18.74 46.1919 18.0839 46.0513 17.4323 45.8831C16.7739 45.713 16.1355 45.518 15.5221 45.3003C14.9147 45.0856 14.3172 44.8456 13.7348 44.5841C13.1584 44.3244 12.5828 44.0357 12.0132 43.7201C11.6764 43.5326 11.3578 43.341 11.0249 43.1422L10.4186 42.751C10.1027 42.5409 9.78895 42.3213 9.47865 42.0915V53.0098C9.47865 53.6217 9.51456 54.2037 9.58372 54.7525L9.5875 54.7567C9.66233 55.3534 9.77006 55.9223 9.90801 56.4574C10.0675 57.0712 10.2644 57.6631 10.4953 58.2282C10.7327 58.803 11.0086 59.3639 11.3208 59.904C11.5559 60.3096 11.8057 60.6966 12.0673 61.0605C12.3243 61.4169 12.6111 61.776 12.9263 62.1336C13.1104 62.3464 13.3103 62.5584 13.5216 62.7689C13.7306 62.9745 13.9385 63.1699 14.146 63.3521C14.5073 63.67 14.8701 63.961 15.23 64.2199C15.6004 64.4863 15.9825 64.7335 16.3714 64.9576C16.6979 65.1458 17.0301 65.3208 17.3684 65.4815C18.3783 69.9874 20.324 73.7103 22.9901 76.2497C22.4326 76.2429 21.8751 76.2161 21.318 76.17C20.6827 76.1178 20.0405 76.0362 19.395 75.9285C18.7396 75.8189 18.0831 75.6783 17.4312 75.5097C16.7728 75.3396 16.1352 75.1438 15.5221 74.9265C14.8475 74.688 14.1861 74.4185 13.5409 74.1215C12.8972 73.824 12.2638 73.4952 11.6458 73.138L11.0249 72.7661L10.4186 72.3757C9.95866 72.0692 9.5036 71.7422 9.0561 71.3957C8.62562 71.0623 8.19777 70.7059 7.77711 70.3279C7.41994 70.0086 7.10058 69.7089 6.8277 69.436C6.51437 69.1185 6.2207 68.8086 5.95046 68.5058C5.58838 68.1029 5.23084 67.6743 4.88048 67.2212C4.53503 66.7744 4.20848 66.3197 3.90385 65.8605L3.51683 65.2608L3.14039 64.6326C2.78398 64.0162 2.45478 63.383 2.15809 62.7394C1.86064 62.0946 1.59078 61.4321 1.35229 60.7574C1.13421 60.1414 0.938433 59.5019 0.767976 58.8416C0.600543 58.1911 0.460322 57.5365 0.351093 56.8834C0.243377 56.2386 0.161743 55.5961 0.109586 54.9611C0.0559164 54.3118 0.0283203 53.661 0.0283203 53.0121V23.3881C0.0283203 22.7392 0.0559164 22.0883 0.109586 21.4394C0.161743 20.804 0.243377 20.1619 0.351093 19.5164C0.460322 18.8621 0.600543 18.2079 0.767976 17.5582C0.938433 16.8979 1.13497 16.2576 1.35229 15.6427C1.59078 14.9681 1.86102 14.3052 2.15847 13.6604C2.45516 13.0167 2.78398 12.3836 3.14039 11.7676L3.51304 11.1462L3.90498 10.5407C4.20848 10.0823 4.53428 9.6276 4.87935 9.182C5.21346 8.75 5.57175 8.32102 5.95046 7.89771C6.24829 7.56587 6.54725 7.24802 6.84546 6.95019C7.15954 6.63574 7.46984 6.34206 7.77258 6.07182C8.1751 5.70974 8.60369 5.35295 9.05648 5.00259C9.5036 4.65639 9.95866 4.32984 10.4186 4.02445L11.0207 3.63857C11.2119 3.51687 11.4232 3.39062 11.6458 3.26174C12.2638 2.90457 12.8972 2.57538 13.5409 2.27831C14.1861 1.98123 14.8475 1.71138 15.5221 1.47327C16.137 1.25557 16.7758 1.0598 17.4357 0.889717C18.0861 0.721528 18.7408 0.580927 19.395 0.471699C20.0405 0.363982 20.6827 0.282339 21.318 0.230182C21.967 0.176513 22.617 0.148926 23.2664 0.148926C23.9153 0.148926 24.5662 0.176513 25.2155 0.230182C25.8508 0.282339 26.493 0.363982 27.1385 0.471699C27.7852 0.579415 28.4387 0.720006 29.094 0.889329C29.7577 1.06016 30.3972 1.25595 31.0118 1.47327C31.6864 1.71214 32.3486 1.98162 32.9937 2.27945C33.4605 2.49413 33.922 2.72656 34.3752 2.97412C34.8287 2.72656 35.2902 2.49413 35.757 2.27945C36.4021 1.98162 37.0654 1.71214 37.7397 1.47327C38.355 1.25557 38.9949 1.0598 39.6544 0.889717C40.3049 0.721528 40.9595 0.580927 41.6137 0.471699C42.2589 0.363982 42.9014 0.282339 43.5364 0.230182C44.1853 0.176513 44.8361 0.148926 45.4851 0.148926C46.1336 0.148926 46.7849 0.176513 47.4342 0.230182C48.0691 0.282339 48.7117 0.363982 49.3568 0.471699C50.0107 0.580927 50.6649 0.72114 51.3146 0.889329C51.9832 1.06243 52.622 1.25822 53.2305 1.47327C53.9044 1.71214 54.5669 1.98162 55.2117 2.27869C55.8557 2.57614 56.4884 2.90457 57.106 3.26174L57.7273 3.63366L58.3332 4.02445C58.7928 4.32984 59.2475 4.65639 59.6942 5.00259C60.1255 5.33632 60.5533 5.69387 60.9747 6.07182C61.3073 6.36889 61.6222 6.66597 61.9177 6.96115C62.1925 7.23177 62.4861 7.54395 62.8017 7.89771L63.1854 8.33614L63.555 8.78212C63.7844 9.06672 64.0089 9.35774 64.224 9.65065C64.4594 9.97154 64.6692 10.2686 64.8487 10.5388L65.2365 11.1432L65.6114 11.7698C65.9686 12.387 66.2974 13.0193 66.5941 13.6634C66.8916 14.3082 67.1614 14.9707 67.3999 15.645C67.6172 16.2588 67.8126 16.8964 67.9831 17.5559C68.1513 18.2075 68.2919 18.8633 68.4015 19.5186C68.5092 20.1634 68.5916 20.8056 68.6438 21.4409C68.6702 21.7656 68.6902 22.0906 68.7038 22.4156V24.3647C68.6902 24.6898 68.6702 25.0148 68.6438 25.3391C68.5916 25.9752 68.5092 26.6173 68.4015 27.2617C68.2919 27.9175 68.1513 28.5732 67.9831 29.2245C67.8126 29.884 67.6172 30.522 67.3999 31.1354L67.3829 31.1826C67.1478 31.8437 66.8829 32.4926 66.5911 33.1242C66.2944 33.7656 65.9663 34.3956 65.6114 35.009L65.2388 35.63L64.8487 36.2358C64.6484 36.5375 64.4387 36.8379 64.2202 37.1346C64.0104 37.4207 63.7863 37.7102 63.5508 38.0001L63.1854 38.4431L62.499 39.2243H62.4892C62.287 39.4428 62.0953 39.6435 61.9139 39.8245C61.6426 40.0963 61.3292 40.3903 60.9747 40.7074C60.7547 40.9043 60.5291 41.0986 60.3008 41.288C60.0926 41.4614 59.8601 41.6466 59.6088 41.8394C59.4863 41.9671 59.0755 42.251 58.9247 42.37L58.574 42.6701C58.4258 42.7994 58.2731 42.9411 58.1178 43.0912C57.9772 43.2272 57.832 43.3746 57.6843 43.5315L57.349 43.8973C57.0451 44.2375 56.759 44.5958 56.4918 44.9669C56.2242 45.3392 55.9759 45.7229 55.7499 46.1148C55.4335 46.6655 55.1561 47.226 54.9237 47.7937C54.6886 48.3719 54.4909 48.963 54.3367 49.5625C54.1954 50.1154 54.085 50.6869 54.0117 51.2716C53.9425 51.82 53.9066 52.4016 53.9066 53.0132C53.9066 53.6247 53.9425 54.2056 54.0117 54.754L54.0155 54.7582C54.0903 55.3553 54.198 55.9246 54.336 56.4609C54.4959 57.0766 54.6939 57.6703 54.9252 58.2369C55.1573 58.8038 55.4332 59.3632 55.748 59.9089C55.9831 60.3148 56.2329 60.7015 56.4941 61.0651C56.7624 61.4374 57.0493 61.7968 57.3505 62.1381C57.5387 62.3482 57.736 62.558 57.9428 62.7648C58.1514 62.9734 58.3627 63.1718 58.5732 63.3574C58.9326 63.6741 59.2947 63.9644 59.6534 64.2225C60.0253 64.4897 60.4078 64.738 60.7982 64.9633C61.1622 65.1716 61.5386 65.3666 61.9264 65.5453C62.3074 65.7211 62.6993 65.8806 63.0977 66.0212C63.3165 66.0986 63.5108 66.1648 63.6676 66.2121C63.826 66.2604 64.0157 66.3129 64.2432 66.3708L64.2474 66.3746C64.8011 66.5171 65.3718 66.6266 65.9561 66.7C66.5049 66.7691 67.087 66.805 67.6996 66.805C68.3123 66.805 68.8936 66.7691 69.4424 66.7C69.9526 66.6357 70.4526 66.5443 70.9406 66.4267C70.8631 66.2884 75.8948 71.7456 78.4834 73.2212ZM36.031 28.6084C36.2664 28.032 36.4633 27.4409 36.6179 26.8403C36.76 26.2881 36.8696 25.7174 36.9433 25.1339C37.0152 24.5613 37.0533 23.9777 37.0533 23.39C37.0492 22.7962 37.0114 22.2134 36.9403 21.6454C36.8704 21.0614 36.7597 20.4911 36.6179 19.9381C36.463 19.3327 36.2668 18.7446 36.0347 18.1769C35.7936 17.5915 35.517 17.0294 35.2085 16.495C34.9708 16.0883 34.7198 15.699 34.4568 15.3336C34.1911 14.9639 33.9061 14.6071 33.6045 14.267C33.4159 14.0572 33.219 13.8471 33.0115 13.64C32.8248 13.4491 32.6135 13.2525 32.3815 13.0481C32.0387 12.7412 31.6769 12.4528 31.3028 12.1829C30.9309 11.915 30.5473 11.667 30.1565 11.4418C29.7929 11.2335 29.4164 11.0385 29.0286 10.8597C28.648 10.6836 28.2561 10.5237 27.8581 10.3839L27.2885 10.193L26.7084 10.0305C26.1543 9.88802 25.5828 9.77764 24.9985 9.70432C24.4497 9.63516 23.8684 9.59963 23.2565 9.59963C22.6446 9.59963 22.0626 9.63516 21.5142 9.70432C20.9318 9.77764 20.361 9.88763 19.8077 10.0294C19.1936 10.1885 18.6021 10.3862 18.037 10.6171C17.4618 10.8537 16.902 11.1303 16.3623 11.4418C15.9564 11.6769 15.5697 11.9267 15.2065 12.1878C14.8339 12.4562 14.4744 12.7427 14.1328 13.0443C13.9222 13.2329 13.7113 13.4313 13.5038 13.6388C13.2782 13.8645 13.0805 14.0735 12.9142 14.2632C12.5964 14.6283 12.3054 14.9904 12.0468 15.3494C11.7796 15.7206 11.5317 16.1027 11.3076 16.492C10.9916 17.043 10.7142 17.6039 10.4817 18.1727C10.247 18.7495 10.0505 19.3391 9.89667 19.9381C9.75796 20.4756 9.64987 21.0441 9.57503 21.6423L9.57125 21.6469C9.50171 22.196 9.4658 22.7788 9.4658 23.39C9.4658 23.9838 9.5036 24.5669 9.57465 25.1354C9.64458 25.7182 9.75456 26.2874 9.89591 26.8384C10.0547 27.4522 10.2519 28.0437 10.4829 28.6088C10.7202 29.184 10.9961 29.7449 11.3076 30.2846C11.5426 30.689 11.7932 31.0764 12.0552 31.4404C12.3227 31.8119 12.6089 32.1698 12.9105 32.5111L13.2412 32.8694C13.3599 32.9987 13.505 33.1446 13.6751 33.309L14.1331 33.7334C14.4952 34.0486 14.8565 34.3389 15.2156 34.5974C15.5867 34.8643 15.9689 35.1126 16.3585 35.3367C16.9024 35.6497 17.4629 35.9263 18.0378 36.1614C18.6066 36.3954 19.1969 36.5919 19.8039 36.7476C20.3323 36.8833 20.8709 36.9887 21.4186 37.0613C21.9628 37.1339 22.5135 37.1751 23.0653 37.183C23.1923 37.1751 23.32 37.1785 23.447 37.1785C23.9985 37.1751 24.5488 37.1339 25.0938 37.0613C25.6418 36.9887 26.18 36.8833 26.7046 36.7476C26.8958 36.7 27.0878 36.6452 27.2802 36.5862L27.8581 36.3957C28.2557 36.2544 28.6461 36.0953 29.0252 35.9203C29.4138 35.7415 29.7913 35.5453 30.1527 35.3367C30.3492 35.2256 30.5533 35.0994 30.7638 34.9629C30.9792 34.8231 31.1784 34.6855 31.361 34.5528L32.0421 34.0233L32.3796 33.7349L32.8395 33.309L33.2749 32.8717L33.603 32.513C33.9186 32.1502 34.2096 31.7877 34.4685 31.4272C34.7357 31.0568 34.9825 30.6754 35.207 30.2861C35.5234 29.7362 35.7997 29.1765 36.031 28.6084Z" fill="#3D41F4"/>
</svg>
