<svg width="191" height="28" viewBox="0 0 191 28" fill="none" xmlns="http://www.w3.org/2000/svg">
<path d="M11.6328 1.35547C14.4323 1.35547 16.6328 2.13021 18.2344 3.67969C19.8359 5.22917 20.6367 7.32552 20.6367 9.96875C20.6367 11.6484 20.2786 13.1328 19.5625 14.4219C18.8464 15.7109 17.7982 16.7201 16.418 17.4492C15.0508 18.1654 13.4167 18.5234 11.5156 18.5234H6.59375V27H0.753906V1.35547H11.6328ZM10.4414 13.5234C11.8216 13.5234 12.8372 13.1654 13.4883 12.4492C14.1523 11.7201 14.4844 10.8477 14.4844 9.83203C14.4844 8.94661 14.1523 8.15885 13.4883 7.46875C12.8372 6.77865 11.8346 6.43359 10.4805 6.43359H6.59375V13.5234H10.4414ZM33.0781 8.79688C33.6641 8.79688 34.224 8.84896 34.7578 8.95312V13.7969C34.5755 13.7708 34.2956 13.7578 33.918 13.7578C32.3164 13.7578 31.0794 14.181 30.207 15.0273C29.3477 15.8607 28.918 17.0391 28.918 18.5625V27H23.332V8.95312H28.4492L28.8008 11.3945C29.1003 10.5352 29.6276 9.89062 30.3828 9.46094C31.138 9.01823 32.0365 8.79688 33.0781 8.79688ZM36.5938 17.957C36.5938 16.0951 37.0104 14.4349 37.8438 12.9766C38.6901 11.5052 39.8685 10.3659 41.3789 9.55859C42.9023 8.73828 44.6536 8.32812 46.6328 8.32812C48.612 8.32812 50.3503 8.73828 51.8477 9.55859C53.3581 10.3659 54.5299 11.5052 55.3633 12.9766C56.2096 14.4349 56.6328 16.0951 56.6328 17.957C56.6328 19.793 56.2096 21.4401 55.3633 22.8984C54.5299 24.3568 53.3516 25.4961 51.8281 26.3164C50.3047 27.1237 48.5729 27.5273 46.6328 27.5273C44.6536 27.5273 42.9023 27.1237 41.3789 26.3164C39.8685 25.4961 38.6901 24.3568 37.8438 22.8984C37.0104 21.4401 36.5938 19.793 36.5938 17.957ZM42.2969 17.918C42.2969 19.2852 42.694 20.4049 43.4883 21.2773C44.2956 22.1367 45.3438 22.5664 46.6328 22.5664C47.9089 22.5664 48.944 22.1367 49.7383 21.2773C50.5456 20.4049 50.9492 19.2852 50.9492 17.918C50.9492 16.5638 50.5521 15.4635 49.7578 14.6172C48.9766 13.7578 47.9349 13.3281 46.6328 13.3281C45.3307 13.3281 44.2826 13.7578 43.4883 14.6172C42.694 15.4635 42.2969 16.5638 42.2969 17.918ZM69.4453 8.95312C69.4453 7.29948 69.8424 5.86068 70.6367 4.63672C71.444 3.41276 72.5638 2.46875 73.9961 1.80469C75.4414 1.14062 77.1276 0.808594 79.0547 0.808594C80.9167 0.808594 82.5768 1.13411 84.0352 1.78516C85.4935 2.4362 86.6263 3.36068 87.4336 4.55859C88.2409 5.75651 88.6576 7.13021 88.6836 8.67969H82.6484C82.6224 7.79427 82.2448 7.07812 81.5156 6.53125C80.7865 5.98438 79.862 5.71094 78.7422 5.71094C77.7526 5.71094 76.9583 5.9388 76.3594 6.39453C75.7604 6.85026 75.4609 7.46224 75.4609 8.23047C75.4609 8.94661 75.7148 9.48698 76.2227 9.85156C76.7435 10.2161 77.5117 10.5221 78.5273 10.7695L82.5703 11.6875C84.8359 12.2214 86.5352 13.1393 87.668 14.4414C88.8008 15.7435 89.3672 17.332 89.3672 19.207C89.3672 20.8867 88.944 22.3516 88.0977 23.6016C87.2643 24.8516 86.0794 25.8216 84.543 26.5117C83.0195 27.1888 81.2422 27.5273 79.2109 27.5273C76.1771 27.5273 73.7161 26.7917 71.8281 25.3203C69.9531 23.849 68.9245 21.8503 68.7422 19.3242H74.7383C74.8164 20.3659 75.2591 21.1732 76.0664 21.7461C76.8867 22.319 77.9609 22.6055 79.2891 22.6055C80.513 22.6055 81.4701 22.3581 82.1602 21.8633C82.8633 21.3685 83.2148 20.6914 83.2148 19.832C83.2148 19.1419 82.987 18.6081 82.5312 18.2305C82.0755 17.8398 81.4375 17.5469 80.6172 17.3516L76.3789 16.3555C73.9831 15.7956 72.2253 14.8776 71.1055 13.6016C69.9987 12.3255 69.4453 10.776 69.4453 8.95312ZM91.9062 17.957C91.9062 16.0951 92.3229 14.4349 93.1562 12.9766C94.0026 11.5052 95.181 10.3659 96.6914 9.55859C98.2148 8.73828 99.9661 8.32812 101.945 8.32812C103.924 8.32812 105.663 8.73828 107.16 9.55859C108.671 10.3659 109.842 11.5052 110.676 12.9766C111.522 14.4349 111.945 16.0951 111.945 17.957C111.945 19.793 111.522 21.4401 110.676 22.8984C109.842 24.3568 108.664 25.4961 107.141 26.3164C105.617 27.1237 103.885 27.5273 101.945 27.5273C99.9661 27.5273 98.2148 27.1237 96.6914 26.3164C95.181 25.4961 94.0026 24.3568 93.1562 22.8984C92.3229 21.4401 91.9062 19.793 91.9062 17.957ZM97.6094 17.918C97.6094 19.2852 98.0065 20.4049 98.8008 21.2773C99.6081 22.1367 100.656 22.5664 101.945 22.5664C103.221 22.5664 104.257 22.1367 105.051 21.2773C105.858 20.4049 106.262 19.2852 106.262 17.918C106.262 16.5638 105.865 15.4635 105.07 14.6172C104.289 13.7578 103.247 13.3281 101.945 13.3281C100.643 13.3281 99.5951 13.7578 98.8008 14.6172C98.0065 15.4635 97.6094 16.5638 97.6094 17.918ZM114.523 17.957C114.523 16.043 114.927 14.3568 115.734 12.8984C116.542 11.4401 117.688 10.3138 119.172 9.51953C120.656 8.72526 122.355 8.32812 124.27 8.32812C126.001 8.32812 127.544 8.64714 128.898 9.28516C130.266 9.92318 131.353 10.8281 132.16 12C132.98 13.1719 133.443 14.5195 133.547 16.043H127.883C127.674 15.1315 127.232 14.4479 126.555 13.9922C125.891 13.5234 125.103 13.2891 124.191 13.2891C122.993 13.2891 122.023 13.7122 121.281 14.5586C120.552 15.3919 120.188 16.5247 120.188 17.957C120.188 19.3763 120.546 20.5091 121.262 21.3555C121.991 22.1888 122.967 22.6055 124.191 22.6055C125.155 22.6055 125.969 22.3516 126.633 21.8438C127.297 21.3359 127.714 20.6784 127.883 19.8711H133.547C133.417 21.3685 132.941 22.6966 132.121 23.8555C131.314 25.0143 130.227 25.9193 128.859 26.5703C127.505 27.2083 125.975 27.5273 124.27 27.5273C122.355 27.5273 120.656 27.1302 119.172 26.3359C117.688 25.5286 116.542 24.4089 115.734 22.9766C114.927 21.5312 114.523 19.8581 114.523 17.957ZM136.125 17.957C136.125 16.043 136.529 14.3568 137.336 12.8984C138.143 11.4401 139.289 10.3138 140.773 9.51953C142.258 8.72526 143.957 8.32812 145.871 8.32812C147.603 8.32812 149.146 8.64714 150.5 9.28516C151.867 9.92318 152.954 10.8281 153.762 12C154.582 13.1719 155.044 14.5195 155.148 16.043H149.484C149.276 15.1315 148.833 14.4479 148.156 13.9922C147.492 13.5234 146.704 13.2891 145.793 13.2891C144.595 13.2891 143.625 13.7122 142.883 14.5586C142.154 15.3919 141.789 16.5247 141.789 17.957C141.789 19.3763 142.147 20.5091 142.863 21.3555C143.592 22.1888 144.569 22.6055 145.793 22.6055C146.757 22.6055 147.57 22.3516 148.234 21.8438C148.898 21.3359 149.315 20.6784 149.484 19.8711H155.148C155.018 21.3685 154.543 22.6966 153.723 23.8555C152.915 25.0143 151.828 25.9193 150.461 26.5703C149.107 27.2083 147.577 27.5273 145.871 27.5273C143.957 27.5273 142.258 27.1302 140.773 26.3359C139.289 25.5286 138.143 24.4089 137.336 22.9766C136.529 21.5312 136.125 19.8581 136.125 17.957ZM176.32 21.1992C175.943 23.0872 174.921 24.6172 173.254 25.7891C171.587 26.9479 169.595 27.5273 167.277 27.5273C165.389 27.5273 163.723 27.1302 162.277 26.3359C160.832 25.5286 159.712 24.4023 158.918 22.957C158.124 21.4987 157.727 19.819 157.727 17.918C157.727 16.0039 158.124 14.3177 158.918 12.8594C159.712 11.401 160.832 10.2812 162.277 9.5C163.723 8.71875 165.35 8.32812 167.16 8.32812C168.944 8.32812 170.526 8.69922 171.906 9.44141C173.299 10.1836 174.374 11.2188 175.129 12.5469C175.897 13.862 176.281 15.3594 176.281 17.0391C176.281 17.9766 176.203 18.7904 176.047 19.4805H163.234C163.286 20.5482 163.677 21.401 164.406 22.0391C165.148 22.6771 166.105 22.9961 167.277 22.9961C168.163 22.9961 168.924 22.8333 169.562 22.5078C170.201 22.1693 170.637 21.7331 170.871 21.1992H176.32ZM170.559 15.8477C170.533 14.9362 170.181 14.2135 169.504 13.6797C168.84 13.1458 167.993 12.8789 166.965 12.8789C165.923 12.8789 165.064 13.1458 164.387 13.6797C163.723 14.2135 163.365 14.9362 163.312 15.8477H170.559ZM189.25 8.79688C189.836 8.79688 190.396 8.84896 190.93 8.95312V13.7969C190.747 13.7708 190.467 13.7578 190.09 13.7578C188.488 13.7578 187.251 14.181 186.379 15.0273C185.52 15.8607 185.09 17.0391 185.09 18.5625V27H179.504V8.95312H184.621L184.973 11.3945C185.272 10.5352 185.799 9.89062 186.555 9.46094C187.31 9.01823 188.208 8.79688 189.25 8.79688Z" fill="url(#paint0_linear_628_618)"/>
<defs>
<linearGradient id="paint0_linear_628_618" x1="-2" y1="-12" x2="18.1637" y2="73.5939" gradientUnits="userSpaceOnUse">
<stop stop-color="#02D3FF"/>
<stop offset="0.405674" stop-color="#3D41F4"/>
<stop offset="0.549443" stop-color="#3D41F4"/>
<stop offset="0.63721" stop-color="#3D41F4"/>
<stop offset="0.69597" stop-color="#3D41F4"/>
<stop offset="0.998541" stop-color="#02D3FF"/>
</linearGradient>
</defs>
</svg>
